<svg width="320" height="420" viewBox="0 0 320 420" fill="none" xmlns="http://www.w3.org/2000/svg">
<g filter="url(#filter0_d_9_30)">
<g filter="url(#filter1_d_9_30)">
<rect x="20" y="16.0001" width="280" height="380" rx="20" fill="#589BBC"/>
</g>
<g clip-path="url(#clip0_9_30)">
<path d="M123.44 113.136L103.551 147.252L160.521 206.354L217.659 147.252L197.77 113.136H123.44V113.136ZM187.32 122.746L180.241 139.564L169.285 122.746H187.32ZM169.959 141.966H150.913L160.352 127.551L169.959 141.966ZM151.756 122.746L140.801 139.404L133.89 122.746H151.756ZM125.631 129.153L131.025 141.966H118.215L125.631 129.153ZM121.08 151.576H134.901L145.52 177.043L121.08 151.576ZM160.521 186.653L145.857 151.576H175.185L160.521 186.653ZM175.522 177.043L186.14 151.576H199.961L175.522 177.043ZM190.185 141.966L195.41 129.313L202.658 141.966H190.185V141.966Z" fill="black"/>
<path d="M165.577 81.1024H155.464V103.526H165.577V81.1024Z" fill="black"/>
<path d="M231.976 99.5425L224.974 92.6089L207.828 108.245L214.83 115.179L231.976 99.5425Z" fill="black"/>
<path d="M113.147 108.311L96.0033 92.6722L89.0003 99.6047L106.144 115.243L113.147 108.311Z" fill="black"/>
</g>
<path d="M133.069 295.132L136.093 292.513L133.771 290.191C134.347 289.381 134.761 288.337 135.013 287.059C135.265 285.781 135.391 284.215 135.391 282.361C135.391 280.561 135.274 279.031 135.04 277.771C134.806 276.493 134.419 275.458 133.879 274.666C133.339 273.856 132.628 273.271 131.746 272.911C130.864 272.533 129.784 272.344 128.506 272.344C127.228 272.344 126.148 272.533 125.266 272.911C124.384 273.271 123.673 273.856 123.133 274.666C122.593 275.458 122.206 276.493 121.972 277.771C121.738 279.031 121.621 280.561 121.621 282.361C121.621 284.161 121.738 285.7 121.972 286.978C122.206 288.238 122.593 289.273 123.133 290.083C123.673 290.875 124.384 291.442 125.266 291.784C126.148 292.126 127.228 292.297 128.506 292.297H128.992C129.244 292.297 129.469 292.279 129.667 292.243C129.883 292.225 130.099 292.198 130.315 292.162L133.069 295.132ZM126.805 282.361C126.805 281.065 126.823 279.994 126.859 279.148C126.895 278.284 126.967 277.6 127.075 277.096C127.201 276.592 127.372 276.241 127.588 276.043C127.822 275.845 128.128 275.746 128.506 275.746C128.884 275.746 129.181 275.845 129.397 276.043C129.631 276.241 129.802 276.592 129.91 277.096C130.036 277.6 130.117 278.284 130.153 279.148C130.189 279.994 130.207 281.065 130.207 282.361C130.207 283.657 130.189 284.737 130.153 285.601C130.117 286.447 130.036 287.122 129.91 287.626C129.802 288.13 129.631 288.481 129.397 288.679C129.181 288.877 128.884 288.976 128.506 288.976C128.128 288.976 127.822 288.877 127.588 288.679C127.372 288.481 127.201 288.13 127.075 287.626C126.967 287.122 126.895 286.447 126.859 285.601C126.823 284.737 126.805 283.657 126.805 282.361ZM136.975 277.393V288.409C136.975 289.183 137.074 289.831 137.272 290.353C137.47 290.857 137.74 291.262 138.082 291.568C138.424 291.856 138.82 292.045 139.27 292.135C139.738 292.243 140.242 292.297 140.782 292.297C142.528 292.297 143.707 291.604 144.319 290.218H144.373V292H149.071V277.393H144.211V287.032C144.211 287.644 144.121 288.085 143.941 288.355C143.761 288.625 143.455 288.76 143.023 288.76C142.591 288.76 142.285 288.625 142.105 288.355C141.925 288.085 141.835 287.644 141.835 287.032V277.393H136.975ZM156.294 289.111C155.934 289.111 155.646 288.967 155.43 288.679C155.214 288.391 155.106 288.004 155.106 287.518C155.106 287.032 155.178 286.645 155.322 286.357C155.466 286.051 155.727 285.808 156.105 285.628C156.465 285.466 156.789 285.367 157.077 285.331C157.383 285.277 157.608 285.151 157.752 284.953H157.806V286.708C157.806 287.518 157.689 288.121 157.455 288.517C157.221 288.913 156.834 289.111 156.294 289.111ZM158.103 292H162.801C162.603 291.622 162.477 291.172 162.423 290.65C162.369 290.128 162.342 289.525 162.342 288.841V281.713C162.342 280.759 162.198 279.985 161.91 279.391C161.64 278.779 161.244 278.302 160.722 277.96C160.218 277.6 159.606 277.357 158.886 277.231C158.184 277.087 157.41 277.015 156.564 277.015C156.006 277.015 155.403 277.078 154.755 277.204C154.107 277.312 153.504 277.546 152.946 277.906C152.388 278.248 151.92 278.743 151.542 279.391C151.164 280.021 150.975 280.867 150.975 281.929H155.187C155.205 281.155 155.322 280.642 155.538 280.39C155.754 280.12 156.096 279.985 156.564 279.985C157.392 279.985 157.806 280.435 157.806 281.335C157.806 281.785 157.698 282.136 157.482 282.388C157.266 282.622 156.897 282.802 156.375 282.928L154.458 283.387C153.684 283.567 153.036 283.792 152.514 284.062C151.992 284.314 151.578 284.629 151.272 285.007C150.966 285.367 150.741 285.799 150.597 286.303C150.471 286.807 150.408 287.401 150.408 288.085C150.408 288.715 150.48 289.291 150.624 289.813C150.768 290.335 151.002 290.785 151.326 291.163C151.65 291.541 152.064 291.82 152.568 292C153.09 292.198 153.72 292.297 154.458 292.297C155.214 292.297 155.88 292.135 156.456 291.811C157.05 291.487 157.482 291.001 157.752 290.353H157.806C157.842 290.659 157.878 290.947 157.914 291.217C157.95 291.487 158.013 291.748 158.103 292ZM164.583 272.722V292H169.443V272.722H164.583ZM171.544 272.722V276.34H176.404V272.722H171.544ZM171.544 277.393V292H176.404V277.393H171.544ZM177.506 277.393V280.66H179.126V288.436C179.126 289.246 179.198 289.903 179.342 290.407C179.504 290.893 179.747 291.262 180.071 291.514C180.413 291.766 180.845 291.928 181.367 292C181.889 292.054 182.519 292.081 183.257 292.081C183.671 292.081 184.103 292.063 184.553 292.027C185.003 292.009 185.453 292 185.903 292V288.76H185.147C184.751 288.76 184.454 288.679 184.256 288.517C184.076 288.337 183.986 288.04 183.986 287.626V280.66H185.903V277.393H183.986V273.1H179.126V277.393H177.506ZM187.319 293.161V296.563C187.733 296.599 188.156 296.626 188.588 296.644C189.038 296.662 189.524 296.671 190.046 296.671C190.694 296.671 191.27 296.608 191.774 296.482C192.278 296.356 192.719 296.131 193.097 295.807C193.493 295.483 193.826 295.042 194.096 294.484C194.384 293.944 194.636 293.251 194.852 292.405L198.767 277.393H193.907L192.503 287.248H192.449L190.964 277.393H185.969L189.803 291.163C189.857 291.361 189.902 291.55 189.938 291.73C189.992 291.91 190.019 292.054 190.019 292.162C190.019 292.234 189.992 292.333 189.938 292.459C189.884 292.585 189.794 292.702 189.668 292.81C189.542 292.936 189.371 293.044 189.155 293.134C188.957 293.224 188.705 293.269 188.399 293.269C188.219 293.269 188.039 293.26 187.859 293.242C187.679 293.224 187.499 293.197 187.319 293.161Z" fill="black"/>
</g>
<defs>
<filter id="filter0_d_9_30" x="0" y="6.10352e-05" width="320" height="420" filterUnits="userSpaceOnUse" color-interpolation-filters="sRGB">
<feFlood flood-opacity="0" result="BackgroundImageFix"/>
<feColorMatrix in="SourceAlpha" type="matrix" values="0 0 0 0 0 0 0 0 0 0 0 0 0 0 0 0 0 0 127 0" result="hardAlpha"/>
<feOffset dy="4"/>
<feGaussianBlur stdDeviation="10"/>
<feColorMatrix type="matrix" values="0 0 0 0 0 0 0 0 0 0 0 0 0 0 0 0 0 0 0.25 0"/>
<feBlend mode="normal" in2="BackgroundImageFix" result="effect1_dropShadow_9_30"/>
<feBlend mode="normal" in="SourceGraphic" in2="effect1_dropShadow_9_30" result="shape"/>
</filter>
<filter id="filter1_d_9_30" x="16" y="16.0001" width="288" height="388" filterUnits="userSpaceOnUse" color-interpolation-filters="sRGB">
<feFlood flood-opacity="0" result="BackgroundImageFix"/>
<feColorMatrix in="SourceAlpha" type="matrix" values="0 0 0 0 0 0 0 0 0 0 0 0 0 0 0 0 0 0 127 0" result="hardAlpha"/>
<feOffset dy="4"/>
<feGaussianBlur stdDeviation="2"/>
<feColorMatrix type="matrix" values="0 0 0 0 0 0 0 0 0 0 0 0 0 0 0 0 0 0 0.25 0"/>
<feBlend mode="normal" in2="BackgroundImageFix" result="effect1_dropShadow_9_30"/>
<feBlend mode="normal" in="SourceGraphic" in2="effect1_dropShadow_9_30" result="shape"/>
</filter>
<clipPath id="clip0_9_30">
<rect width="142.979" height="125.251" fill="white" transform="translate(89 81.1024)"/>
</clipPath>
</defs>
</svg>
