<svg width="40" height="40" viewBox="0 0 40 40" fill="none" xmlns="http://www.w3.org/2000/svg">
<path d="M0.868991 7.82093C0.521338 8.16851 0.347583 8.34234 0 8.68992V38.2356C0.347583 38.5833 0.521409 38.7571 0.868991 39.1046H10.4279C10.7755 38.7571 10.9493 38.5833 11.2969 38.2356V8.68992C10.9492 8.34227 10.7755 8.16851 10.4279 7.82093H0.868991ZM14.7729 17.3798L13.9039 18.2488V38.2356C14.2514 38.5833 14.4253 38.7571 14.7729 39.1046H24.3318C24.6793 38.7571 24.8532 38.5833 25.2008 38.2356V18.2488L24.3318 17.3798H14.7729ZM38.2356 0H28.6767C28.3291 0.347653 28.1553 0.521409 27.8077 0.868992V38.2356C28.1553 38.5833 28.3291 38.7571 28.6767 39.1046H38.2356C38.5832 38.7571 38.757 38.5833 39.1046 38.2356V0.868992C38.757 0.521409 38.5832 0.347583 38.2356 0Z" fill="#E6E6E6"/>
</svg>
