<svg width="40" height="40" viewBox="0 0 40 40" fill="none" xmlns="http://www.w3.org/2000/svg">
<path d="M20 0C8.9644 0 0 8.9644 0 20C0 31.0356 8.9644 40 20 40C31.0356 40 40 31.0356 40 20C40 8.9644 31.0356 0 20 0ZM6.34304 16.0841C5.79288 15.89 4.62783 15.9547 4.23948 16.4401C3.94822 16.7638 3.75404 17.7346 3.72168 18.1553C3.68932 18.5437 3.68932 19.2233 3.94822 19.5793C4.01295 19.6764 4.07767 19.7411 4.14239 19.8382C4.36893 19.8382 4.56311 19.8382 4.78964 19.8382C5.17799 19.8382 5.08091 18.9968 5.5987 18.932C5.72815 18.932 5.88997 19.0291 5.88997 19.1586C5.88997 19.2233 5.85761 19.288 5.82524 19.3204C5.56634 19.7735 4.98382 20.7443 5.79288 20.8091C6.82848 20.9061 6.31068 21.6828 6.3754 22.2654C6.3754 22.3301 6.40777 22.4919 6.44013 22.4919L6.14887 22.6214C5.8576 22.2654 5.56634 21.9093 5.27508 21.6181C4.62783 20.9061 4.1424 20.7443 3.39806 20.2265C3.13916 20.0647 2.8479 19.7087 2.68608 19.4498C2.62136 19.3203 2.52427 19.1909 2.45955 19.0938C2.45955 18.576 2.49191 18.0258 2.36246 17.508C2.3301 17.4757 2.3301 17.4757 2.29773 17.4433C3.17152 11.2621 7.24919 6.08407 12.8155 3.62453L13.5599 3.33333C14.1747 3.1068 14.7896 2.88026 15.4045 2.71845L15.5339 2.68608C15.631 2.65372 15.7604 2.62136 15.8575 2.62136C15.9871 2.65372 16.1165 2.71845 16.246 2.75081C16.6019 3.17152 16.5371 3.68932 16.7313 4.17476C16.8284 4.46602 17.3139 4.98382 17.1197 5.27508C16.9579 5.50162 16.6666 5.43689 16.4724 5.59871C16.246 5.79288 16.1165 6.05178 15.8575 6.24595C15.7605 6.31068 15.6311 6.3754 15.5663 6.47249C15.4369 6.6343 15.4693 6.8932 15.5016 7.08738C15.6311 7.76699 15.5339 8.47896 16.1165 8.9644C17.2168 9.87055 16.4077 10.4207 15.2427 10.5825C14.8543 10.6472 14.2394 10.6796 13.9805 11.0032C13.6893 11.3269 13.8835 11.6181 13.5922 11.9094C13.1391 12.3948 12.1359 12.2654 11.5533 12.5566C10.7443 12.945 10.2265 13.6246 9.67631 14.3042C9.15851 14.9515 8.54362 15.4045 7.89637 15.89C7.21683 16.3754 7.11974 16.343 6.34304 16.0841ZM19.6764 29.8382C19.5146 30.2913 18.932 30.4531 18.6408 30.809C18.3495 31.165 18.3172 31.6504 18.0906 32.0388C17.6375 32.8155 16.6343 33.0096 15.9547 33.5599C15.3722 34.0452 15.0485 34.7573 14.5955 35.3722C14.1424 35.9871 13.4304 36.5372 12.6861 36.343C12.1683 36.2135 11.8124 35.7604 11.6182 35.275C11.424 34.7896 11.3593 34.2718 11.2946 33.754C10.9709 31.8446 10.0001 30.0323 8.64084 28.6731C7.79942 27.8317 7.11981 27.0227 7.54052 25.7605C7.70233 25.2751 8.02596 24.8219 8.02596 24.3041C8.02596 24.1747 7.9936 24.0776 7.96123 23.9482C7.83178 23.5274 8.05832 23.0744 8.51139 22.9449C8.67321 22.9126 8.80266 22.8479 8.93211 22.8155C9.32046 22.7184 9.7088 22.8155 10.0648 22.9126C10.9062 23.1067 11.7153 23.3332 12.492 23.7216C13.7542 24.3689 14.6927 25.4368 15.7606 26.343C16.2784 26.796 16.8608 27.2168 17.4434 27.5727C17.7994 27.7992 18.123 27.9934 18.5114 28.1876C18.835 28.3494 19.1586 28.5113 19.4175 28.7702C19.644 29.0938 19.8058 29.4822 19.6764 29.8382ZM25.2751 5.04854C24.9515 5.53398 24.5955 5.43689 24.11 5.56634C23.6893 5.66343 23.3333 5.95469 22.9126 6.08414C22.4595 6.24595 22.0712 6.14887 21.7152 6.56958C21.521 6.76375 21.4239 7.02265 21.2621 7.24919C21.1326 7.47573 20.9384 7.70226 20.6795 7.79935C19.8705 8.12298 19.1261 6.82848 19.0291 6.18123C18.9968 5.98705 18.9968 5.82524 19.0291 5.63107C19.1909 4.56311 19.2556 4.20712 18.7702 3.23625C18.6731 3.07443 18.1553 2.42718 18.1553 2.3301C18.1553 2.29773 18.1553 2.26537 18.1553 2.23301C18.7702 2.16828 19.385 2.13592 20.0324 2.13592C21.3915 2.13592 22.7184 2.29773 24.0129 2.589C24.6925 2.75081 25.1779 2.75081 25.4045 3.33333C25.5987 3.85113 25.5987 4.53074 25.2751 5.04854ZM28.6084 35.6634C28.8026 35.437 28.9968 34.8867 29.3527 34.8544C29.288 33.2362 31.1974 32.7184 31.424 31.2622C31.4887 30.8415 31.3917 30.4531 31.424 30.0324C31.4563 29.4499 32.1684 28.8674 32.0389 28.3496C31.9741 28.0907 30.8414 27.3463 30.5502 27.4111C30.3237 27.4434 30.0971 27.5728 29.8706 27.6052C29.6117 27.67 29.3528 27.6376 29.0939 27.6052C28.479 27.5405 27.5405 27.5729 27.1845 26.958C27.0874 26.7962 27.055 26.602 26.9903 26.4078C26.7961 25.7282 25.9548 25.0486 26.246 24.3043C26.5049 23.5923 26.4725 22.9774 26.6667 22.2331C26.9256 21.3269 27.767 20.4208 28.5437 19.9676C29.1586 19.644 29.2233 18.8026 29.8059 18.3819C29.9353 18.2848 30.0648 18.2201 30.1295 18.0906C30.5826 17.411 27.9936 15.178 30.0324 15.0162C30.3884 14.9838 30.8415 15.3074 31.1975 15.178C31.8124 14.9191 31.4564 14.3689 31.068 14.0777C30.8739 13.9159 30.3884 13.5599 30.6473 13.2362C30.7444 13.1392 30.8739 13.0744 30.9709 13.0421C32.2979 12.4919 33.4305 11.2298 32.136 10C31.8447 9.7411 31.5858 9.41747 31.6182 9.02913C31.6829 8.4466 32.6861 7.411 32.0389 6.79612C32.6214 7.34628 33.2039 7.9288 33.7217 8.54369C34.2396 9.15858 34.5631 9.7411 34.7897 10.3236C34.8544 10.3236 36.8609 13.7864 37.3463 15.7605C37.7023 17.2168 37.8641 18.7702 37.8318 20.4531C37.8317 26.7638 33.9806 32.5243 28.6084 35.6634Z" fill="#E6E6E6"/>
</svg>
