<svg width="37" height="40" viewBox="0 0 37 40" fill="none" xmlns="http://www.w3.org/2000/svg">
<path d="M4.71694 39.8847C3.74568 39.5488 3.01513 38.7318 2.83815 37.7836C2.79943 37.5765 2.77612 35.3256 2.77612 31.7979V26.1442L2.39757 26.1099C1.32539 26.0127 0.270663 25.0206 0.0644133 23.9151C-0.0262888 23.4294 -0.0189725 13.536 0.0723253 13.1092C0.299506 12.0475 1.15318 11.1934 2.20902 10.9714C2.4225 10.9264 3.53841 10.9026 5.42963 10.9026H8.32359L8.32435 18.0063C8.32512 25.6324 8.31525 25.3773 8.6379 26.0496C8.83181 26.4539 9.44818 27.0547 9.87471 27.2556C10.0667 27.346 10.4203 27.4537 10.6605 27.4949L11.0973 27.5698V33.7827V39.9955L8.06169 39.9936C5.34479 39.9917 4.99347 39.9802 4.71694 39.8847ZM14.8262 39.8766C13.9016 39.5465 13.1876 38.7091 13.0129 37.7499C12.9684 37.5053 12.9463 35.5226 12.9463 31.7642V26.1442L12.5765 26.1107C11.827 26.0427 10.9023 25.4164 10.5233 24.7201C10.1671 24.0657 10.1724 24.1597 10.1741 18.5173C10.1751 15.3831 10.1993 13.2346 10.2357 13.0772C10.4638 12.089 11.2837 11.2582 12.2992 10.9865C12.752 10.8653 24.2354 10.8653 24.6883 10.9865C25.6921 11.255 26.4623 12.0252 26.7309 13.0291C26.7965 13.2747 26.8135 14.3889 26.8141 18.5173C26.8149 24.1593 26.8202 24.0657 26.464 24.7201C26.0856 25.4156 25.1602 26.0427 24.4127 26.1105L24.0448 26.1439L24.0274 31.9756C24.0102 37.7689 24.0092 37.8097 23.8779 38.153C23.5524 39.0041 22.9535 39.5997 22.1427 39.8786C21.8248 39.9881 21.5886 39.9953 18.4687 39.991C15.4317 39.987 15.107 39.9767 14.8262 39.8766ZM25.8903 33.7849V27.5699L26.3184 27.4965C26.554 27.4561 26.9076 27.3477 27.1043 27.2555C27.5405 27.0513 28.1544 26.4568 28.3497 26.0497C28.6724 25.3773 28.6625 25.6325 28.6633 18.0064L28.6639 10.9027H31.5579C33.4491 10.9027 34.565 10.9265 34.7785 10.9714C35.8343 11.1935 36.6879 12.0476 36.9152 13.1093C37.0065 13.5361 37.0137 23.4295 36.9231 23.9152C36.717 25.0193 35.6568 26.0133 34.5812 26.1109L34.2114 26.1444V31.7981C34.2114 35.3257 34.1882 37.5766 34.1494 37.7838C33.9963 38.6042 33.3733 39.3839 32.5649 39.7668L32.1465 39.9649L29.0184 39.9825L25.8902 40.0001L25.8903 33.7849ZM6.65385 9.23449C6.12274 9.16259 5.47447 8.94 4.95255 8.65037C4.44586 8.36924 3.57721 7.51574 3.27753 7.00471C2.6981 6.0166 2.4955 4.64833 2.76872 3.56798C3.24486 1.68511 4.67253 0.374349 6.59659 0.0535727C7.91585 -0.166376 9.38904 0.298367 10.4064 1.2555C11.1791 1.98231 11.596 2.71474 11.8004 3.70421C12.0124 4.73069 11.8851 5.6954 11.4074 6.6824C10.5484 8.45705 8.60769 9.49894 6.65385 9.23449ZM17.8853 9.23636C15.5753 8.92009 13.8673 6.95843 13.872 4.62697C13.8765 2.37575 15.4397 0.510317 17.6825 0.0796092C20.0883 -0.382325 22.5123 1.2504 23.0271 3.67979C23.2107 4.54639 23.094 5.69864 22.7418 6.49555C21.9179 8.36005 19.8809 9.50966 17.8853 9.23636ZM29.1049 9.23653C28.5692 9.16319 27.8437 8.91269 27.3666 8.6365C27.1479 8.50989 26.7306 8.17023 26.4393 7.8817C25.9822 7.42878 25.8666 7.26882 25.5934 6.71057C25.2342 5.9767 25.089 5.37531 25.089 4.62212C25.089 3.32472 25.5808 2.2072 26.566 1.26588C27.5691 0.307641 29.0405 -0.161696 30.3715 0.0520414C32.2984 0.361501 33.742 1.68247 34.2202 3.5736C34.4035 4.29888 34.3627 5.35471 34.1238 6.064C33.4093 8.18495 31.2752 9.53399 29.1049 9.23653Z" fill="#E6E6E6"/>
</svg>
