<svg width="33" height="40" viewBox="0 0 33 40" fill="none" xmlns="http://www.w3.org/2000/svg">
<path d="M25.5469 7.77327C26.4059 7.77327 27.2563 7.77327 28.1153 7.77327C28.8722 7.77327 29.9013 7.54364 30.2329 8.36008C30.3435 8.63223 30.318 8.92989 30.318 9.21905C30.318 9.6868 30.318 10.1546 30.318 10.6308C30.318 14.5174 30.318 18.4125 30.318 22.2991C30.318 26.3984 30.318 30.4976 30.318 34.5968C30.318 35.4558 30.318 36.3147 30.318 37.1822C30.318 37.786 29.9438 38.2538 29.391 38.2793C29.1018 38.2878 28.8127 38.2793 28.532 38.2793C24.9261 38.2793 21.3201 38.2793 17.7056 38.2793C13.5384 38.2793 9.37113 38.2793 5.21238 38.2793C4.35341 38.2793 3.48594 38.3133 2.62698 38.2793C1.60643 38.2368 1.70848 37.0971 1.70848 36.3062C1.70848 32.7683 1.70848 29.2304 1.70848 25.6925C1.70848 21.3721 1.70848 17.0433 1.70848 12.7229C1.70848 11.5493 1.70848 10.3757 1.70848 9.20204C1.70848 8.85335 1.68297 8.53017 1.87857 8.2155C2.28679 7.55214 3.35837 7.77327 4.08977 7.77327C4.8892 7.77327 5.69714 7.77327 6.49657 7.77327C7.59367 7.77327 7.59367 6.07234 6.49657 6.07234C5.6121 6.07234 4.72762 6.07234 3.84314 6.07234C2.72903 6.07234 1.60643 5.97879 0.764469 6.88028C-0.128514 7.8413 0.00755965 9.09998 0.00755965 10.2991C0.00755965 14.2198 0.00755965 18.1319 0.00755965 22.0525C0.00755965 26.2793 0.00755965 30.5061 0.00755965 34.7329C0.00755965 35.5578 -0.00944956 36.3913 0.00755965 37.2162C0.0415781 38.6875 1.08764 39.9377 2.60146 39.9887C2.83959 39.9972 3.07772 39.9887 3.31585 39.9887C6.96433 39.9887 10.6213 39.9887 14.2698 39.9887C18.5221 39.9887 22.7659 39.9887 27.0182 39.9887C27.8176 39.9887 28.6256 40.0142 29.425 39.9887C30.9388 39.9377 31.9849 38.6875 32.0189 37.2162C32.0274 36.9526 32.0189 36.6804 32.0189 36.4168C32.0189 32.7938 32.0189 29.1624 32.0189 25.5394C32.0189 21.1425 32.0189 16.7456 32.0189 12.3487C32.0189 11.2516 32.0189 10.1461 32.0189 9.04896C32.0189 8.22401 31.7978 7.41607 31.1854 6.82075C30.301 5.96178 29.1528 6.08935 28.0302 6.08935C27.2053 6.08935 26.3718 6.08935 25.5469 6.08935C24.4498 6.07234 24.4498 7.77327 25.5469 7.77327Z" fill="#E6E6E6"/>
<path d="M18.5901 4.50744C20.9119 4.50744 23.2336 4.50744 25.5469 4.50744C25.2662 4.22679 24.9771 3.93763 24.6964 3.65698C24.6964 5.57052 24.6964 7.48405 24.6964 9.40609C24.9771 9.12544 25.2662 8.83628 25.5469 8.55563C23.4037 8.55563 21.2521 8.55563 19.1089 8.55563C15.6901 8.55563 12.2712 8.55563 8.85235 8.55563C8.06993 8.55563 7.28751 8.55563 6.49658 8.55563C6.77723 8.83628 7.06639 9.12544 7.34704 9.40609C7.34704 7.49256 7.34704 5.57902 7.34704 3.65698C7.06639 3.93763 6.77723 4.22679 6.49658 4.50744C8.81834 4.50744 11.1401 4.50744 13.4533 4.50744C14.5504 4.50744 14.5504 2.80652 13.4533 2.80652C11.1316 2.80652 8.80983 2.80652 6.49658 2.80652C6.03733 2.80652 5.64612 3.19773 5.64612 3.65698C5.64612 5.57052 5.64612 7.48405 5.64612 9.40609C5.64612 9.86534 6.03733 10.2566 6.49658 10.2566C8.63974 10.2566 10.7914 10.2566 12.9346 10.2566C16.3534 10.2566 19.7723 10.2566 23.1911 10.2566C23.9735 10.2566 24.756 10.2566 25.5469 10.2566C26.0061 10.2566 26.3974 9.86534 26.3974 9.40609C26.3974 7.49256 26.3974 5.57902 26.3974 3.65698C26.3974 3.19773 26.0061 2.80652 25.5469 2.80652C23.2251 2.80652 20.9034 2.80652 18.5901 2.80652C17.493 2.80652 17.493 4.50744 18.5901 4.50744Z" fill="#E6E6E6"/>
<path d="M14.3038 3.65698C14.3208 2.66194 15.0097 1.70092 16.0218 1.70092C17.0338 1.70092 17.7227 2.67045 17.7397 3.65698C17.7567 4.75407 19.4661 4.75407 19.4406 3.65698C19.4066 1.76896 18.0118 0 16.0218 0C14.0317 0 12.6454 1.77746 12.6029 3.65698C12.5859 4.75407 14.2868 4.75407 14.3038 3.65698Z" fill="#E6E6E6"/>
<path d="M18.6752 23.4642C21.1841 23.4642 23.7014 23.4642 26.2103 23.4642C26.576 23.4642 26.9332 23.4642 27.2989 23.4642C28.396 23.4642 28.396 21.7633 27.2989 21.7633C24.79 21.7633 22.2727 21.7633 19.7638 21.7633C19.3981 21.7633 19.0409 21.7633 18.6752 21.7633C17.5866 21.7633 17.5866 23.4642 18.6752 23.4642Z" fill="#E6E6E6"/>
<path d="M21.3881 19.6797C23.3612 19.6797 25.3257 19.6797 27.2988 19.6797C28.3959 19.6797 28.3959 17.9788 27.2988 17.9788C25.3257 17.9788 23.3612 17.9788 21.3881 17.9788C20.2995 17.9788 20.291 19.6797 21.3881 19.6797Z" fill="#E6E6E6"/>
<path d="M15.8686 27.2402C19.2364 27.2402 22.5957 27.2402 25.9636 27.2402C26.4398 27.2402 26.9246 27.2402 27.4008 27.2402C28.4979 27.2402 28.4979 25.5393 27.4008 25.5393C24.033 25.5393 20.6737 25.5393 17.3059 25.5393C16.8296 25.5393 16.3449 25.5393 15.8686 25.5393C14.7715 25.5393 14.7715 27.2402 15.8686 27.2402Z" fill="#E6E6E6"/>
<path d="M4.03873 23.2091C4.75312 23.9915 5.459 24.7739 6.17339 25.5564C6.49656 25.9136 7.04086 25.8455 7.37254 25.5564C9.20953 23.966 11.038 22.3841 12.875 20.7938C13.1387 20.5642 13.4023 20.343 13.6574 20.1134C14.0061 19.8158 13.9636 19.2204 13.6574 18.9143C13.3088 18.5656 12.807 18.6166 12.4583 18.9143C10.6213 20.5046 8.79281 22.0865 6.95581 23.6768C6.69217 23.9065 6.42853 24.1276 6.17339 24.3572C6.5731 24.3572 6.97282 24.3572 7.37254 24.3572C6.65815 23.5748 5.95227 22.7924 5.23788 22.0184C4.50649 21.1935 3.29883 22.4012 4.03873 23.2091Z" fill="#E6E6E6"/>
</svg>
