<svg width="193" height="123" viewBox="0 0 193 123" fill="none" xmlns="http://www.w3.org/2000/svg">
<circle cx="60" cy="25" r="24.5" stroke="#60BC58"/>
<circle cx="122" cy="25" r="25" fill="#60BC58"/>
<path d="M10.7553 97.575V98.575H15.2553V97.45C15.2553 96.5833 15.1469 95.8083 14.9303 95.125C14.7303 94.425 14.3969 93.8333 13.9303 93.35C13.4803 92.85 12.8886 92.4667 12.1553 92.2C11.4219 91.9333 10.5303 91.8 9.48027 91.8C8.28027 91.8 7.27194 91.9667 6.45527 92.3C5.63861 92.6167 4.98027 93.1417 4.48027 93.875C3.98027 94.6083 3.62194 95.5667 3.40527 96.75C3.20527 97.9333 3.10527 99.375 3.10527 101.075C3.10527 102.742 3.18861 104.167 3.35527 105.35C3.53861 106.517 3.86361 107.475 4.33027 108.225C4.79694 108.958 5.44694 109.483 6.28027 109.8C7.11361 110.117 8.18027 110.275 9.48027 110.275C10.2303 110.275 10.9553 110.192 11.6553 110.025C12.3719 109.875 13.0053 109.575 13.5553 109.125C14.1053 108.658 14.5469 108.025 14.8803 107.225C15.2136 106.425 15.3803 105.4 15.3803 104.15V102.825H10.8803C10.8803 103.675 10.8553 104.383 10.8053 104.95C10.7719 105.5 10.7053 105.942 10.6053 106.275C10.5053 106.608 10.3636 106.85 10.1803 107C9.99694 107.133 9.76361 107.2 9.48027 107.2C9.13027 107.2 8.84694 107.108 8.63027 106.925C8.43027 106.742 8.27194 106.417 8.15527 105.95C8.05527 105.483 7.98861 104.858 7.95527 104.075C7.92194 103.275 7.90527 102.275 7.90527 101.075C7.90527 99.875 7.92194 98.8833 7.95527 98.1C7.98861 97.3 8.05527 96.6667 8.15527 96.2C8.27194 95.7333 8.43027 95.4083 8.63027 95.225C8.84694 95.0417 9.13027 94.95 9.48027 94.95C9.93027 94.95 10.2553 95.1333 10.4553 95.5C10.6553 95.8667 10.7553 96.5583 10.7553 97.575ZM20.958 103.25C20.958 102.4 20.9747 101.7 21.008 101.15C21.0413 100.6 21.108 100.167 21.208 99.85C21.308 99.5333 21.433 99.3167 21.583 99.2C21.7497 99.0833 21.958 99.025 22.208 99.025C22.458 99.025 22.6663 99.0833 22.833 99.2C22.9997 99.3167 23.1247 99.5333 23.208 99.85C23.308 100.167 23.3747 100.6 23.408 101.15C23.4413 101.7 23.458 102.4 23.458 103.25C23.458 104.1 23.4413 104.8 23.408 105.35C23.3747 105.883 23.308 106.308 23.208 106.625C23.1247 106.942 22.9997 107.158 22.833 107.275C22.6663 107.392 22.458 107.45 22.208 107.45C21.958 107.45 21.7497 107.392 21.583 107.275C21.433 107.158 21.308 106.942 21.208 106.625C21.108 106.308 21.0413 105.883 21.008 105.35C20.9747 104.8 20.958 104.1 20.958 103.25ZM27.958 103.25C27.958 102.267 27.8997 101.35 27.783 100.5C27.683 99.6333 27.4413 98.875 27.058 98.225C26.6747 97.575 26.0997 97.0667 25.333 96.7C24.5663 96.3167 23.5247 96.125 22.208 96.125C20.9413 96.125 19.9247 96.3333 19.158 96.75C18.408 97.15 17.833 97.6833 17.433 98.35C17.033 99.0167 16.7663 99.775 16.633 100.625C16.5163 101.475 16.458 102.342 16.458 103.225C16.458 104.208 16.508 105.133 16.608 106C16.7247 106.85 16.9747 107.6 17.358 108.25C17.7413 108.883 18.3163 109.383 19.083 109.75C19.8497 110.1 20.8913 110.275 22.208 110.275C23.4747 110.275 24.483 110.083 25.233 109.7C25.9997 109.3 26.583 108.775 26.983 108.125C27.383 107.458 27.6413 106.7 27.758 105.85C27.8913 105 27.958 104.133 27.958 103.25ZM29.233 96.475V110H33.733V102.625C33.733 101.725 33.9497 101.1 34.383 100.75C34.833 100.4 35.458 100.225 36.258 100.225C36.4413 100.225 36.6247 100.233 36.808 100.25C36.9913 100.267 37.183 100.292 37.383 100.325V96.125H36.658C35.9913 96.125 35.383 96.3417 34.833 96.775C34.283 97.1917 33.883 97.8083 33.633 98.625H33.583V96.475H29.233ZM38.0221 96.475V110H42.5221V102.625C42.5221 101.725 42.7387 101.1 43.1721 100.75C43.6221 100.4 44.2471 100.225 45.0471 100.225C45.2304 100.225 45.4137 100.233 45.5971 100.25C45.7804 100.267 45.9721 100.292 46.1721 100.325V96.125H45.4471C44.7804 96.125 44.1721 96.3417 43.6221 96.775C43.0721 97.1917 42.6721 97.8083 42.4221 98.625H42.3721V96.475H38.0221ZM53.5111 100.95V101.55H51.0361V100.95C51.0361 100.233 51.1195 99.7083 51.2861 99.375C51.4695 99.0417 51.7945 98.875 52.2611 98.875C52.7445 98.875 53.0695 99.0417 53.2361 99.375C53.4195 99.7083 53.5111 100.233 53.5111 100.95ZM51.0361 104H57.7111V102.625C57.7111 101.392 57.5945 100.367 57.3611 99.55C57.1445 98.7167 56.8028 98.05 56.3361 97.55C55.8861 97.0333 55.3195 96.6667 54.6361 96.45C53.9695 96.2333 53.1861 96.125 52.2861 96.125C51.2695 96.125 50.3945 96.2583 49.6611 96.525C48.9445 96.775 48.3528 97.1833 47.8861 97.75C47.4195 98.3167 47.0778 99.05 46.8611 99.95C46.6445 100.85 46.5361 101.95 46.5361 103.25C46.5361 104.533 46.6278 105.625 46.8111 106.525C47.0111 107.425 47.3361 108.158 47.7861 108.725C48.2361 109.275 48.8278 109.675 49.5611 109.925C50.2945 110.158 51.2028 110.275 52.2861 110.275C54.1528 110.275 55.4945 109.858 56.3111 109.025C57.1278 108.175 57.5528 106.917 57.5861 105.25H53.5361C53.5361 106.167 53.4195 106.792 53.1861 107.125C52.9695 107.442 52.6611 107.6 52.2611 107.6C51.9445 107.6 51.6611 107.483 51.4111 107.25C51.1611 107 51.0361 106.508 51.0361 105.775V104ZM65.6973 101.775H69.7473C69.7473 100.925 69.6639 100.158 69.4973 99.475C69.3473 98.775 69.0723 98.1833 68.6723 97.7C68.2889 97.2 67.7639 96.8167 67.0973 96.55C66.4473 96.2667 65.6223 96.125 64.6223 96.125C63.7723 96.125 62.9806 96.2083 62.2473 96.375C61.5139 96.5417 60.8723 96.8833 60.3223 97.4C59.7889 97.9167 59.3639 98.6583 59.0473 99.625C58.7306 100.592 58.5723 101.875 58.5723 103.475C58.5723 104.942 58.7139 106.125 58.9973 107.025C59.2806 107.908 59.6723 108.6 60.1723 109.1C60.6889 109.583 61.3056 109.9 62.0223 110.05C62.7389 110.2 63.5306 110.275 64.3973 110.275C66.3139 110.275 67.6973 109.825 68.5473 108.925C68.9806 108.442 69.2889 107.825 69.4723 107.075C69.6556 106.325 69.7473 105.417 69.7473 104.35H65.6973V105.225C65.6973 106.075 65.5806 106.658 65.3473 106.975C65.1306 107.292 64.8139 107.45 64.3973 107.45C64.1473 107.45 63.9306 107.392 63.7473 107.275C63.5806 107.142 63.4473 106.917 63.3473 106.6C63.2473 106.283 63.1723 105.858 63.1223 105.325C63.0889 104.775 63.0723 104.083 63.0723 103.25C63.0723 102.417 63.0889 101.733 63.1223 101.2C63.1723 100.65 63.2473 100.217 63.3473 99.9C63.4473 99.5667 63.5806 99.3417 63.7473 99.225C63.9306 99.0917 64.1473 99.025 64.3973 99.025C64.8806 99.025 65.2139 99.2167 65.3973 99.6C65.4973 99.8167 65.5723 100.1 65.6223 100.45C65.6723 100.783 65.6973 101.225 65.6973 101.775ZM70.1584 96.475V99.5H71.6584V106.7C71.6584 107.45 71.7251 108.058 71.8584 108.525C72.0084 108.975 72.2334 109.317 72.5334 109.55C72.8501 109.783 73.2501 109.933 73.7334 110C74.2167 110.05 74.8001 110.075 75.4834 110.075C75.8667 110.075 76.2667 110.058 76.6834 110.025C77.1001 110.008 77.5167 110 77.9334 110V107H77.2334C76.8667 107 76.5917 106.925 76.4084 106.775C76.2417 106.608 76.1584 106.333 76.1584 105.95V99.5H77.9334V96.475H76.1584V92.5H71.6584V96.475H70.1584ZM78.9691 92.15V95.5H83.4691V92.15H78.9691ZM78.9691 96.475V110H83.4691V96.475H78.9691ZM84.3645 96.475L87.5645 110H92.8645L96.1645 96.475H91.5145L90.2645 106.2H90.2145L88.9395 96.475H84.3645ZM103.487 100.95V101.55H101.012V100.95C101.012 100.233 101.095 99.7083 101.262 99.375C101.445 99.0417 101.77 98.875 102.237 98.875C102.72 98.875 103.045 99.0417 103.212 99.375C103.395 99.7083 103.487 100.233 103.487 100.95ZM101.012 104H107.687V102.625C107.687 101.392 107.57 100.367 107.337 99.55C107.12 98.7167 106.778 98.05 106.312 97.55C105.862 97.0333 105.295 96.6667 104.612 96.45C103.945 96.2333 103.162 96.125 102.262 96.125C101.245 96.125 100.37 96.2583 99.6367 96.525C98.9201 96.775 98.3284 97.1833 97.8617 97.75C97.3951 98.3167 97.0534 99.05 96.8367 99.95C96.6201 100.85 96.5117 101.95 96.5117 103.25C96.5117 104.533 96.6034 105.625 96.7867 106.525C96.9867 107.425 97.3117 108.158 97.7617 108.725C98.2117 109.275 98.8034 109.675 99.5367 109.925C100.27 110.158 101.178 110.275 102.262 110.275C104.128 110.275 105.47 109.858 106.287 109.025C107.103 108.175 107.528 106.917 107.562 105.25H103.512C103.512 106.167 103.395 106.792 103.162 107.125C102.945 107.442 102.637 107.6 102.237 107.6C101.92 107.6 101.637 107.483 101.387 107.25C101.137 107 101.012 106.508 101.012 105.775V104ZM120.342 107.325C120.009 107.325 119.742 107.192 119.542 106.925C119.342 106.658 119.242 106.3 119.242 105.85C119.242 105.4 119.309 105.042 119.442 104.775C119.575 104.492 119.817 104.267 120.167 104.1C120.5 103.95 120.8 103.858 121.067 103.825C121.35 103.775 121.559 103.658 121.692 103.475H121.742V105.1C121.742 105.85 121.634 106.408 121.417 106.775C121.2 107.142 120.842 107.325 120.342 107.325ZM122.017 110H126.367C126.184 109.65 126.067 109.233 126.017 108.75C125.967 108.267 125.942 107.708 125.942 107.075V100.475C125.942 99.5917 125.809 98.875 125.542 98.325C125.292 97.7583 124.925 97.3167 124.442 97C123.975 96.6667 123.409 96.4417 122.742 96.325C122.092 96.1917 121.375 96.125 120.592 96.125C120.075 96.125 119.517 96.1833 118.917 96.3C118.317 96.4 117.759 96.6167 117.242 96.95C116.725 97.2667 116.292 97.725 115.942 98.325C115.592 98.9083 115.417 99.6917 115.417 100.675H119.317C119.334 99.9583 119.442 99.4833 119.642 99.25C119.842 99 120.159 98.875 120.592 98.875C121.359 98.875 121.742 99.2917 121.742 100.125C121.742 100.542 121.642 100.867 121.442 101.1C121.242 101.317 120.9 101.483 120.417 101.6L118.642 102.025C117.925 102.192 117.325 102.4 116.842 102.65C116.359 102.883 115.975 103.175 115.692 103.525C115.409 103.858 115.2 104.258 115.067 104.725C114.95 105.192 114.892 105.742 114.892 106.375C114.892 106.958 114.959 107.492 115.092 107.975C115.225 108.458 115.442 108.875 115.742 109.225C116.042 109.575 116.425 109.833 116.892 110C117.375 110.183 117.959 110.275 118.642 110.275C119.342 110.275 119.959 110.125 120.492 109.825C121.042 109.525 121.442 109.075 121.692 108.475H121.742C121.775 108.758 121.809 109.025 121.842 109.275C121.875 109.525 121.934 109.767 122.017 110ZM134.667 101.775H138.717C138.717 100.925 138.634 100.158 138.467 99.475C138.317 98.775 138.042 98.1833 137.642 97.7C137.259 97.2 136.734 96.8167 136.067 96.55C135.417 96.2667 134.592 96.125 133.592 96.125C132.742 96.125 131.95 96.2083 131.217 96.375C130.484 96.5417 129.842 96.8833 129.292 97.4C128.759 97.9167 128.334 98.6583 128.017 99.625C127.7 100.592 127.542 101.875 127.542 103.475C127.542 104.942 127.684 106.125 127.967 107.025C128.25 107.908 128.642 108.6 129.142 109.1C129.659 109.583 130.275 109.9 130.992 110.05C131.709 110.2 132.5 110.275 133.367 110.275C135.284 110.275 136.667 109.825 137.517 108.925C137.95 108.442 138.259 107.825 138.442 107.075C138.625 106.325 138.717 105.417 138.717 104.35H134.667V105.225C134.667 106.075 134.55 106.658 134.317 106.975C134.1 107.292 133.784 107.45 133.367 107.45C133.117 107.45 132.9 107.392 132.717 107.275C132.55 107.142 132.417 106.917 132.317 106.6C132.217 106.283 132.142 105.858 132.092 105.325C132.059 104.775 132.042 104.083 132.042 103.25C132.042 102.417 132.059 101.733 132.092 101.2C132.142 100.65 132.217 100.217 132.317 99.9C132.417 99.5667 132.55 99.3417 132.717 99.225C132.9 99.0917 133.117 99.025 133.367 99.025C133.85 99.025 134.184 99.2167 134.367 99.6C134.467 99.8167 134.542 100.1 134.592 100.45C134.642 100.783 134.667 101.225 134.667 101.775ZM139.128 96.475V99.5H140.628V106.7C140.628 107.45 140.695 108.058 140.828 108.525C140.978 108.975 141.203 109.317 141.503 109.55C141.82 109.783 142.22 109.933 142.703 110C143.186 110.05 143.77 110.075 144.453 110.075C144.836 110.075 145.236 110.058 145.653 110.025C146.07 110.008 146.486 110 146.903 110V107H146.203C145.836 107 145.561 106.925 145.378 106.775C145.211 106.608 145.128 106.333 145.128 105.95V99.5H146.903V96.475H145.128V92.5H140.628V96.475H139.128ZM147.939 92.15V95.5H152.439V92.15H147.939ZM147.939 96.475V110H152.439V96.475H147.939ZM158.409 103.25C158.409 102.4 158.426 101.7 158.459 101.15C158.493 100.6 158.559 100.167 158.659 99.85C158.759 99.5333 158.884 99.3167 159.034 99.2C159.201 99.0833 159.409 99.025 159.659 99.025C159.909 99.025 160.118 99.0833 160.284 99.2C160.451 99.3167 160.576 99.5333 160.659 99.85C160.759 100.167 160.826 100.6 160.859 101.15C160.893 101.7 160.909 102.4 160.909 103.25C160.909 104.1 160.893 104.8 160.859 105.35C160.826 105.883 160.759 106.308 160.659 106.625C160.576 106.942 160.451 107.158 160.284 107.275C160.118 107.392 159.909 107.45 159.659 107.45C159.409 107.45 159.201 107.392 159.034 107.275C158.884 107.158 158.759 106.942 158.659 106.625C158.559 106.308 158.493 105.883 158.459 105.35C158.426 104.8 158.409 104.1 158.409 103.25ZM165.409 103.25C165.409 102.267 165.351 101.35 165.234 100.5C165.134 99.6333 164.893 98.875 164.509 98.225C164.126 97.575 163.551 97.0667 162.784 96.7C162.018 96.3167 160.976 96.125 159.659 96.125C158.393 96.125 157.376 96.3333 156.609 96.75C155.859 97.15 155.284 97.6833 154.884 98.35C154.484 99.0167 154.218 99.775 154.084 100.625C153.968 101.475 153.909 102.342 153.909 103.225C153.909 104.208 153.959 105.133 154.059 106C154.176 106.85 154.426 107.6 154.809 108.25C155.193 108.883 155.768 109.383 156.534 109.75C157.301 110.1 158.343 110.275 159.659 110.275C160.926 110.275 161.934 110.083 162.684 109.7C163.451 109.3 164.034 108.775 164.434 108.125C164.834 107.458 165.093 106.7 165.209 105.85C165.343 105 165.409 104.133 165.409 103.25ZM166.809 96.475V110H171.309V101.075C171.309 100.508 171.393 100.1 171.559 99.85C171.726 99.6 172.009 99.475 172.409 99.475C172.809 99.475 173.093 99.6 173.259 99.85C173.426 100.1 173.509 100.508 173.509 101.075V110H178.009V99.8C178.009 99.0667 177.918 98.4667 177.734 98C177.551 97.5333 177.301 97.1583 176.984 96.875C176.668 96.5917 176.293 96.4 175.859 96.3C175.443 96.1833 174.984 96.125 174.484 96.125C172.884 96.125 171.793 96.7917 171.209 98.125H171.159V96.475H166.809ZM183.272 105.8H179.322C179.322 107.283 179.731 108.4 180.547 109.15C181.381 109.9 182.739 110.275 184.622 110.275C185.472 110.275 186.231 110.175 186.897 109.975C187.581 109.775 188.147 109.475 188.597 109.075C189.064 108.675 189.422 108.2 189.672 107.65C189.922 107.1 190.047 106.492 190.047 105.825C190.047 104.958 189.881 104.267 189.547 103.75C189.231 103.217 188.831 102.8 188.347 102.5C187.864 102.183 187.339 101.942 186.772 101.775C186.222 101.608 185.706 101.45 185.222 101.3C184.739 101.15 184.331 100.983 183.997 100.8C183.681 100.6 183.522 100.308 183.522 99.925C183.522 99.5917 183.631 99.3333 183.847 99.15C184.064 98.9667 184.339 98.875 184.672 98.875C185.056 98.875 185.347 98.9833 185.547 99.2C185.764 99.4 185.872 99.7917 185.872 100.375H189.772C189.772 97.5417 188.081 96.125 184.697 96.125C183.781 96.125 182.981 96.2333 182.297 96.45C181.631 96.6667 181.072 96.9667 180.622 97.35C180.189 97.7333 179.864 98.1833 179.647 98.7C179.431 99.2 179.322 99.75 179.322 100.35C179.322 101.2 179.481 101.892 179.797 102.425C180.131 102.942 180.539 103.358 181.022 103.675C181.506 103.992 182.022 104.242 182.572 104.425C183.139 104.608 183.664 104.783 184.147 104.95C184.631 105.117 185.031 105.308 185.347 105.525C185.681 105.742 185.847 106.05 185.847 106.45C185.847 106.817 185.714 107.1 185.447 107.3C185.197 107.5 184.897 107.6 184.547 107.6C184.131 107.6 183.814 107.442 183.597 107.125C183.481 106.975 183.397 106.783 183.347 106.55C183.297 106.317 183.272 106.067 183.272 105.8Z" fill="#E6E6E6"/>
</svg>
