<svg width="38" height="40" viewBox="0 0 38 40" fill="none" xmlns="http://www.w3.org/2000/svg">
<path d="M35.2587 22.5704L33.7463 21.7051C33.8094 21.1495 33.8507 20.5842 33.8507 19.9998C33.8507 19.4309 33.8107 18.8705 33.7481 18.3176L35.2605 17.4523C36.6329 16.6651 37.4023 15.2203 37.3987 13.7474C37.3987 13.1696 37.2823 12.5834 37.0414 12.0288C36.4369 10.6332 35.6712 9.32256 34.7716 8.11724C33.9401 7.00348 32.6521 6.38304 31.3277 6.38348C30.6161 6.38215 29.8801 6.56393 29.217 6.94792L29.2241 6.94392L28.0335 7.62525L27.7064 7.71502L27.4686 7.64747C26.7042 7.10437 25.8824 6.62748 25.018 6.23238C24.9148 6.1986 24.7602 6.00038 24.7606 5.73283V4.3604C24.7588 2.22442 23.1811 0.393329 21.0216 0.133332C20.2553 0.044444 19.4798 0 18.6994 0C17.9185 0 17.1429 0.044444 16.3781 0.133776C14.2185 0.393773 12.6408 2.22486 12.639 4.36084V5.74349C12.6394 6.00882 12.4861 6.20793 12.3763 6.24615C11.519 6.64037 10.6986 7.1097 9.93012 7.65236L9.69635 7.71725L9.3648 7.6248L8.17548 6.94437C7.51859 6.56748 6.7866 6.38348 6.0715 6.38437C4.74885 6.38304 3.45864 7.0017 2.62621 8.11902C1.72799 9.32301 0.962223 10.6332 0.356897 12.0305C0.1169 12.5834 -0.000432184 13.1701 1.22555e-05 13.7474C-0.00354326 15.2207 0.767115 16.6643 2.13554 17.4505L3.65108 18.3176C3.58842 18.8705 3.54842 19.4309 3.54842 19.9998C3.54797 20.5838 3.58975 21.1491 3.65286 21.7051L2.13821 22.5717C0.76667 23.3566 -0.00354326 24.8011 1.22555e-05 26.2757C-0.000432184 26.8517 0.1169 27.4393 0.356897 27.9935C0.962223 29.3895 1.72666 30.6988 2.62487 31.9032C3.4582 33.0196 4.74707 33.637 6.06883 33.6356C6.78616 33.637 7.51904 33.4521 8.17725 33.0747L9.38968 32.3787L9.7159 32.2863L9.95234 32.353L9.95768 32.3565C10.7146 32.8974 11.5265 33.3721 12.3848 33.7663C12.4856 33.7996 12.6394 33.9961 12.6394 34.2654V35.6396C12.6412 37.7756 14.219 39.6067 16.3785 39.8667C17.1447 39.956 17.9203 40 18.7002 40C19.4798 40 20.2553 39.956 21.0216 39.8667C23.1811 39.6067 24.7588 37.7756 24.7606 35.6396V34.269C24.7602 34.0001 24.9153 33.8027 25.018 33.769C25.8757 33.3783 26.6917 32.9067 27.4548 32.3592L27.6895 32.2912L28.0153 32.3819L29.2201 33.0739C29.881 33.4538 30.6152 33.6374 31.3308 33.6361C32.6543 33.6365 33.9405 33.0174 34.773 31.9068L34.7747 31.9036C35.6729 30.6992 36.4374 29.3899 37.0423 27.9948C37.2827 27.4392 37.3991 26.8517 37.3991 26.2753C37.4018 24.8011 36.6325 23.3553 35.2587 22.5704ZM33.705 26.549C33.2156 27.677 32.5943 28.7415 31.8605 29.7272L31.3299 29.9997L31.0299 29.9197L29.8281 29.229C29.1735 28.8526 28.4375 28.6557 27.6886 28.6548C26.8824 28.653 26.0459 28.8917 25.3331 29.4046C24.7642 29.8126 24.154 30.1659 23.5095 30.4592C21.9567 31.1797 21.1238 32.7161 21.1233 34.2685V35.6392C21.1251 35.9574 20.8771 36.2285 20.598 36.2543C19.9767 36.3272 19.3416 36.3636 18.6989 36.3636C18.0563 36.3636 17.4212 36.3267 16.7998 36.2543C16.5212 36.2289 16.2727 35.9578 16.2745 35.6392V34.265C16.2741 32.7192 15.4487 31.1863 13.9021 30.4619C13.2599 30.1672 12.6456 29.8086 12.0701 29.3979L12.0754 29.4015C11.3586 28.8846 10.5181 28.6486 9.71501 28.6503C8.96436 28.6508 8.23014 28.8499 7.57548 29.2263L6.36794 29.9192L6.06794 29.9997L5.53906 29.729C4.8044 28.7437 4.18308 27.6784 3.69242 26.5473L3.63508 26.2757C3.63864 26.0388 3.7493 25.8384 3.94264 25.7282L6.53505 24.2451C7.21149 23.8575 7.5657 23.0851 7.41682 22.3198C7.26571 21.542 7.18393 20.794 7.18349 20.0002C7.18349 19.2345 7.26704 18.4513 7.41504 17.714C7.56793 16.9491 7.21193 16.1665 6.53505 15.7794L3.94308 14.2967C3.74886 14.1856 3.63864 13.9838 3.63508 13.7483L3.69197 13.4776C4.18308 12.3448 4.80529 11.2781 5.54084 10.2928L6.07061 10.0203L6.36839 10.1003L7.56304 10.7839C8.21725 11.1545 8.94524 11.3528 9.6959 11.3532C10.4897 11.355 11.3168 11.1248 12.0265 10.623C12.6065 10.2141 13.2336 9.85367 13.8941 9.55056C15.4385 8.82835 16.2741 7.29725 16.2745 5.74394V4.36128C16.2727 4.04307 16.5207 3.77196 16.7998 3.74618C17.4225 3.67329 18.0576 3.63596 18.6989 3.63596C19.3402 3.63596 19.9753 3.67329 20.598 3.74618C20.8771 3.77151 21.1251 4.04262 21.1233 4.36128V5.73327C21.1238 7.28347 21.9549 8.81812 23.5055 9.53989C24.1571 9.83767 24.7815 10.1994 25.3624 10.6123C26.0744 11.1177 26.9042 11.3523 27.7055 11.351C28.4508 11.3505 29.1832 11.1559 29.8383 10.7817L31.029 10.1003L31.0361 10.0963L31.3272 10.0194L31.857 10.2919C32.593 11.2781 33.2148 12.3443 33.7059 13.4767L33.7627 13.7478C33.7592 13.9847 33.6481 14.1865 33.4539 14.2972L30.8637 15.7794C30.1868 16.1665 29.8308 16.9496 29.9837 17.714C30.1312 18.4513 30.2152 19.2345 30.2152 20.0002C30.2148 20.794 30.133 21.542 29.9819 22.3198C29.833 23.0851 30.1868 23.8575 30.8637 24.2451L33.4556 25.7282C33.6481 25.837 33.7601 26.0375 33.7632 26.2748L33.705 26.549Z" fill="#E6E6E6"/>
</svg>
