<svg width="81" height="115" viewBox="0 0 81 115" fill="none" xmlns="http://www.w3.org/2000/svg">
<path d="M80 34V46H40H0V34H40H80Z" fill="#589BBC"/>
<path d="M80 29V17H0V29H80Z" fill="#FFCC33"/>
<path d="M80 12V0H0V12H80Z" fill="#C9C906"/>
<path d="M7.56035 88.1V102H12.2104V88.1H15.7104V84.15H4.11035V88.1H7.56035ZM16.3891 84.15V87.5H20.8891V84.15H16.3891ZM16.3891 88.475V102H20.8891V88.475H16.3891ZM29.4844 93.775H33.5344C33.5344 92.925 33.451 92.1583 33.2844 91.475C33.1344 90.775 32.8594 90.1833 32.4594 89.7C32.076 89.2 31.551 88.8167 30.8844 88.55C30.2344 88.2667 29.4094 88.125 28.4094 88.125C27.5594 88.125 26.7677 88.2083 26.0344 88.375C25.301 88.5417 24.6594 88.8833 24.1094 89.4C23.576 89.9167 23.151 90.6583 22.8344 91.625C22.5177 92.5917 22.3594 93.875 22.3594 95.475C22.3594 96.9417 22.501 98.125 22.7844 99.025C23.0677 99.9083 23.4594 100.6 23.9594 101.1C24.476 101.583 25.0927 101.9 25.8094 102.05C26.526 102.2 27.3177 102.275 28.1844 102.275C30.101 102.275 31.4844 101.825 32.3344 100.925C32.7677 100.442 33.076 99.825 33.2594 99.075C33.4427 98.325 33.5344 97.4167 33.5344 96.35H29.4844V97.225C29.4844 98.075 29.3677 98.6583 29.1344 98.975C28.9177 99.2917 28.601 99.45 28.1844 99.45C27.9344 99.45 27.7177 99.3917 27.5344 99.275C27.3677 99.1417 27.2344 98.9167 27.1344 98.6C27.0344 98.2833 26.9594 97.8583 26.9094 97.325C26.876 96.775 26.8594 96.0833 26.8594 95.25C26.8594 94.4167 26.876 93.7333 26.9094 93.2C26.9594 92.65 27.0344 92.2167 27.1344 91.9C27.2344 91.5667 27.3677 91.3417 27.5344 91.225C27.7177 91.0917 27.9344 91.025 28.1844 91.025C28.6677 91.025 29.001 91.2167 29.1844 91.6C29.2844 91.8167 29.3594 92.1 29.4094 92.45C29.4594 92.7833 29.4844 93.225 29.4844 93.775ZM34.6705 84.15V102H39.1705V98.525L39.9205 97.35L42.1955 102H46.9955L42.7705 94.05L46.5205 88.475H41.7205L39.2205 93.15H39.1705V84.15H34.6705ZM53.8705 92.95V93.55H51.3955V92.95C51.3955 92.2333 51.4788 91.7083 51.6455 91.375C51.8288 91.0417 52.1538 90.875 52.6205 90.875C53.1038 90.875 53.4288 91.0417 53.5955 91.375C53.7788 91.7083 53.8705 92.2333 53.8705 92.95ZM51.3955 96H58.0705V94.625C58.0705 93.3917 57.9538 92.3667 57.7205 91.55C57.5038 90.7167 57.1622 90.05 56.6955 89.55C56.2455 89.0333 55.6788 88.6667 54.9955 88.45C54.3288 88.2333 53.5455 88.125 52.6455 88.125C51.6288 88.125 50.7538 88.2583 50.0205 88.525C49.3038 88.775 48.7122 89.1833 48.2455 89.75C47.7788 90.3167 47.4372 91.05 47.2205 91.95C47.0038 92.85 46.8955 93.95 46.8955 95.25C46.8955 96.5333 46.9872 97.625 47.1705 98.525C47.3705 99.425 47.6955 100.158 48.1455 100.725C48.5955 101.275 49.1872 101.675 49.9205 101.925C50.6538 102.158 51.5622 102.275 52.6455 102.275C54.5122 102.275 55.8538 101.858 56.6705 101.025C57.4872 100.175 57.9122 98.9167 57.9455 97.25H53.8955C53.8955 98.1667 53.7788 98.7917 53.5455 99.125C53.3288 99.4417 53.0205 99.6 52.6205 99.6C52.3038 99.6 52.0205 99.4833 51.7705 99.25C51.5205 99 51.3955 98.5083 51.3955 97.775V96ZM58.4816 88.475V91.5H59.9816V98.7C59.9816 99.45 60.0483 100.058 60.1816 100.525C60.3316 100.975 60.5566 101.317 60.8566 101.55C61.1733 101.783 61.5733 101.933 62.0566 102C62.54 102.05 63.1233 102.075 63.8066 102.075C64.19 102.075 64.59 102.058 65.0066 102.025C65.4233 102.008 65.84 102 66.2566 102V99H65.5566C65.19 99 64.915 98.925 64.7316 98.775C64.565 98.6083 64.4816 98.3333 64.4816 97.95V91.5H66.2566V88.475H64.4816V84.5H59.9816V88.475H58.4816ZM70.6924 97.8H66.7424C66.7424 99.2833 67.1507 100.4 67.9674 101.15C68.8007 101.9 70.159 102.275 72.0424 102.275C72.8924 102.275 73.6507 102.175 74.3174 101.975C75.0007 101.775 75.5674 101.475 76.0174 101.075C76.484 100.675 76.8424 100.2 77.0924 99.65C77.3424 99.1 77.4674 98.4917 77.4674 97.825C77.4674 96.9583 77.3007 96.2667 76.9674 95.75C76.6507 95.2167 76.2507 94.8 75.7674 94.5C75.284 94.1833 74.759 93.9417 74.1924 93.775C73.6424 93.6083 73.1257 93.45 72.6424 93.3C72.159 93.15 71.7507 92.9833 71.4174 92.8C71.1007 92.6 70.9424 92.3083 70.9424 91.925C70.9424 91.5917 71.0507 91.3333 71.2674 91.15C71.484 90.9667 71.759 90.875 72.0924 90.875C72.4757 90.875 72.7674 90.9833 72.9674 91.2C73.184 91.4 73.2924 91.7917 73.2924 92.375H77.1924C77.1924 89.5417 75.5007 88.125 72.1174 88.125C71.2007 88.125 70.4007 88.2333 69.7174 88.45C69.0507 88.6667 68.4924 88.9667 68.0424 89.35C67.609 89.7333 67.284 90.1833 67.0674 90.7C66.8507 91.2 66.7424 91.75 66.7424 92.35C66.7424 93.2 66.9007 93.8917 67.2174 94.425C67.5507 94.9417 67.959 95.3583 68.4424 95.675C68.9257 95.9917 69.4424 96.2417 69.9924 96.425C70.559 96.6083 71.084 96.7833 71.5674 96.95C72.0507 97.1167 72.4507 97.3083 72.7674 97.525C73.1007 97.7417 73.2674 98.05 73.2674 98.45C73.2674 98.8167 73.1341 99.1 72.8674 99.3C72.6174 99.5 72.3174 99.6 71.9674 99.6C71.5507 99.6 71.234 99.4417 71.0174 99.125C70.9007 98.975 70.8174 98.7833 70.7674 98.55C70.7174 98.3167 70.6924 98.0667 70.6924 97.8Z" fill="#E6E6E6"/>
</svg>
