<svg width="40" height="40" viewBox="0 0 40 40" fill="none" xmlns="http://www.w3.org/2000/svg">
<path d="M37.2292 22.3651H32.9576C33.4267 21.5575 33.4282 20.5608 32.9617 19.7517C32.4951 18.9426 31.6316 18.4447 30.6977 18.4462H26.7788C25.8449 18.4447 24.9814 18.9426 24.5149 19.7517C24.0485 20.5608 24.05 21.5575 24.519 22.3651H14.6827L16.9099 16.7938C17.5309 15.9211 17.7671 14.832 17.5636 13.7804C17.3599 12.7289 16.7341 11.8067 15.8321 11.229H15.8255L12.88 6.03648H18.2879C18.6487 6.03648 18.9411 5.7441 18.9411 5.38334C18.9411 5.02258 18.6487 4.7302 18.2879 4.7302H12.9976C13.0425 4.51544 13.0645 4.29647 13.0628 4.07705C13.0644 3.85764 13.0425 3.63867 12.9976 3.42391H19.6792C19.6209 3.63663 19.5924 3.85649 19.5943 4.07705C19.594 4.71227 19.8264 5.32568 20.2475 5.80131V8.64899C20.2496 9.36956 20.8332 9.95311 21.5537 9.95528V13.221C21.5537 13.5817 21.8461 13.8741 22.2068 13.8741C22.5675 13.8741 22.86 13.5818 22.86 13.221V9.95528C23.5805 9.95311 24.164 9.36956 24.1662 8.64899V5.80131C25.0539 4.76477 24.9942 3.21961 24.0293 2.25463C23.0643 1.28965 21.5192 1.22995 20.4826 2.11762H12.4097C11.633 1.08363 10.3193 0.605315 9.05957 0.897954C7.79984 1.19059 6.83154 2.19907 6.59025 3.46958V3.47417C4.67961 3.76738 3.26821 5.40981 3.26572 7.34277V11.2616C3.26789 13.425 5.02111 15.1783 7.18459 15.1805H9.85597C9.93309 15.67 10.1086 16.1388 10.3719 16.5586L8.04675 22.3651H1.95943C0.878619 22.3683 0.00325296 23.2436 0 24.3245V26.9371C0.00325296 28.0179 0.878619 28.8933 1.95943 28.8966V30.8561C1.96269 31.9369 2.83805 32.8122 3.91886 32.8155V36.0812H3.26572C2.54516 36.0834 1.9616 36.667 1.95943 37.3875V39.3469C1.95943 39.7076 2.25182 40.0001 2.61258 40.0001H9.14402C9.50472 40.0001 9.79716 39.7076 9.79716 39.3469V37.3875C9.79499 36.6669 9.21144 36.0834 8.49088 36.0812H7.83773V32.8155C8.91854 32.8122 9.79391 31.937 9.79716 30.8561V28.8966H15.6755V30.8561C15.6788 31.9369 16.5541 32.8122 17.635 32.8155V36.0812H16.9819C16.2613 36.0834 15.6778 36.667 15.6756 37.3875V39.3469C15.6756 39.7076 15.9681 40.0001 16.3287 40.0001H22.8602C23.2209 40.0001 23.5133 39.7076 23.5133 39.3469V37.3875C23.5112 36.6669 22.9275 36.0834 22.207 36.0812H21.5539V32.8155C22.6347 32.8122 23.5101 31.937 23.5134 30.8561V28.8966H29.3915V30.8561C29.3948 31.9369 30.2701 32.8122 31.3511 32.8155V36.0812H30.6979C29.9773 36.0834 29.3938 36.667 29.3916 37.3875V39.3469C29.3916 39.7076 29.6841 40.0001 30.0448 40.0001H36.5762C36.9369 40.0001 37.2293 39.7076 37.2293 39.3469V37.3875C37.2272 36.6669 36.6435 36.0834 35.9231 36.0812H35.2699V32.8155C36.3507 32.8122 37.2262 31.937 37.2295 30.8561V28.8966C38.3102 28.8933 39.1857 28.018 39.1889 26.9371V24.3245C39.1854 23.2436 38.31 22.3683 37.2292 22.3651ZM22.8601 8.64906H21.5538V6.60473C21.9819 6.71795 22.4321 6.71795 22.8601 6.60473V8.64906ZM32.0041 24.9776C32.3648 24.9776 32.6572 25.2701 32.6572 25.6308C32.6572 25.9915 32.3648 26.2839 32.0041 26.2839H26.1258C25.765 26.2839 25.4726 25.9915 25.4726 25.6308C25.4726 25.2701 25.765 24.9776 26.1258 24.9776H32.0041ZM24.1663 25.6308C24.1663 25.9915 23.874 26.2839 23.5133 26.2839H22.8601C22.4994 26.2839 22.2069 25.9915 22.2069 25.6308C22.2069 25.2701 22.4994 24.9776 22.8601 24.9776H23.5132C23.874 24.9776 24.1663 25.2701 24.1663 25.6308ZM20.7112 25.8202C20.9659 26.0769 20.9659 26.4911 20.7112 26.7477C20.4537 27.0003 20.0413 27.0003 19.7838 26.7477L19.5943 26.5583L19.4049 26.7477C19.1473 27.0003 18.735 27.0003 18.4774 26.7477C18.2227 26.4911 18.2227 26.0769 18.4774 25.8202L18.6668 25.6308L18.4774 25.4413C18.2213 25.1851 18.2213 24.77 18.4774 24.5139C18.7336 24.2577 19.1487 24.2577 19.4049 24.5139L19.5943 24.7033L19.7838 24.5139C20.04 24.2577 20.4551 24.2577 20.7112 24.5139C20.9674 24.77 20.9674 25.1851 20.7112 25.4413L20.5218 25.6308L20.7112 25.8202ZM16.9817 25.6308C16.9817 25.9915 16.6893 26.2839 16.3286 26.2839H10.4503C10.0895 26.2839 9.79716 25.9915 9.79716 25.6308C9.79716 25.2701 10.0895 24.9776 10.4503 24.9776H16.3286C16.6893 24.9776 16.9817 25.2701 16.9817 25.6308ZM8.49088 25.6308C8.49088 25.9915 8.19849 26.2839 7.83773 26.2839H7.18459C6.82389 26.2839 6.53144 25.9915 6.53144 25.6308C6.53144 25.2701 6.82383 24.9776 7.18459 24.9776H7.83773C8.19843 24.9776 8.49088 25.2701 8.49088 25.6308ZM2.80195 25.4413C2.54586 25.1851 2.54586 24.77 2.80195 24.5139C3.05811 24.2577 3.47327 24.2577 3.72943 24.5139L3.91886 24.7033L4.10824 24.5139C4.36439 24.2577 4.77956 24.2577 5.03572 24.5139C5.29181 24.77 5.29181 25.1851 5.03572 25.4413L4.84628 25.6308L5.03572 25.8202C5.2904 26.0769 5.2904 26.4911 5.03572 26.7477C4.77816 27.0003 4.3658 27.0003 4.10824 26.7477L3.91886 26.5583L3.72943 26.7477C3.47187 27.0003 3.05951 27.0003 2.80195 26.7477C2.54726 26.4911 2.54726 26.0769 2.80195 25.8202L2.99139 25.6308L2.80195 25.4413ZM36.3867 25.8202C36.6413 26.0769 36.6413 26.4911 36.3867 26.7477C36.1291 27.0003 35.7167 27.0003 35.4592 26.7477L35.2697 26.5583L35.0803 26.7477C34.8227 27.0003 34.4104 27.0003 34.1529 26.7477C33.8981 26.4911 33.8981 26.0769 34.1529 25.8202L34.3422 25.6308L34.1529 25.4413C33.8967 25.1851 33.8967 24.77 34.1529 24.5139C34.409 24.2577 34.8242 24.2577 35.0803 24.5139L35.2697 24.7033L35.4592 24.5139C35.7154 24.2577 36.1305 24.2577 36.3867 24.5139C36.6429 24.77 36.6429 25.1851 36.3867 25.4413L36.1972 25.6308L36.3867 25.8202ZM25.4726 21.0588C25.4747 20.3382 26.0583 19.7546 26.7788 19.7525H30.6977C31.4192 19.7525 32.0039 20.3373 32.0039 21.0588C32.0039 21.7802 31.4191 22.365 30.6977 22.365H26.7788C26.0583 22.363 25.4747 21.7793 25.4726 21.0588ZM4.57201 11.2616V7.34277C4.57271 6.12163 5.41918 5.06385 6.61047 4.79551C6.80526 5.64485 7.3288 6.38232 8.06633 6.84641L10.0911 13.0382V13.0448C9.98022 13.311 9.90126 13.5894 9.85597 13.8742H7.18459C5.74167 13.8742 4.57201 12.7045 4.57201 11.2616ZM6.53144 36.0811H5.22515V32.8154H6.53144V36.0811ZM8.49088 30.8559C8.49088 31.2166 8.19849 31.5091 7.83773 31.5091H3.91886C3.5581 31.5091 3.26572 31.2166 3.26572 30.8559V28.8965H8.49088V30.8559ZM20.2475 36.0811H18.9412V32.8154H20.2475V36.0811ZM22.2069 30.8559C22.2069 31.2166 21.9145 31.5091 21.5538 31.5091H17.6349C17.2742 31.5091 16.9817 31.2166 16.9817 30.8559V28.8965H22.2069V30.8559ZM33.9635 36.0811H32.6572V32.8154H33.9635V36.0811ZM35.9229 30.8559C35.9229 31.2166 35.6305 31.5091 35.2698 31.5091H31.3509C30.9902 31.5091 30.6978 31.2166 30.6978 30.8559V28.8965H35.9229V30.8559Z" fill="#E6E6E6"/>
</svg>
