<svg width="134" height="38" viewBox="0 0 134 38" fill="none" xmlns="http://www.w3.org/2000/svg">
<g filter="url(#filter0_d_291_67)">
<rect x="4" width="126" height="30" rx="15" fill="#C9C906"/>
<rect x="6" y="2" width="122" height="26" rx="13" stroke="#797911" stroke-width="4"/>
</g>
<path d="M30.616 11.004V21H36.664V18.872H33.22V16.884H36.328V14.84H33.22V13.132H36.538V11.004H30.616ZM37.504 13.426V21H40.024V16.002C40.024 15.6847 40.0707 15.456 40.164 15.316C40.2573 15.176 40.416 15.106 40.64 15.106C40.864 15.106 41.0227 15.176 41.116 15.316C41.2093 15.456 41.256 15.6847 41.256 16.002V21H43.776V15.288C43.776 14.8773 43.7247 14.5413 43.622 14.28C43.5193 14.0187 43.3793 13.8087 43.202 13.65C43.0247 13.4913 42.8147 13.384 42.572 13.328C42.3387 13.2627 42.082 13.23 41.802 13.23C40.906 13.23 40.2947 13.6033 39.968 14.35H39.94V13.426H37.504ZM44.2314 13.426L46.0234 21H48.9914L50.8394 13.426H48.2354L47.5354 18.872H47.5074L46.7934 13.426H44.2314ZM51.2999 11.004V12.88H53.8199V11.004H51.2999ZM51.2999 13.426V21H53.8199V13.426H51.2999ZM54.7973 13.426V21H57.3173V16.87C57.3173 16.366 57.4386 16.016 57.6813 15.82C57.9333 15.624 58.2833 15.526 58.7313 15.526C58.8339 15.526 58.9366 15.5307 59.0393 15.54C59.1419 15.5493 59.2493 15.5633 59.3613 15.582V13.23H58.9553C58.5819 13.23 58.2413 13.3513 57.9333 13.594C57.6253 13.8273 57.4013 14.1727 57.2613 14.63H57.2333V13.426H54.7973ZM62.0852 17.22C62.0852 16.744 62.0945 16.352 62.1132 16.044C62.1318 15.736 62.1692 15.4933 62.2252 15.316C62.2812 15.1387 62.3512 15.0173 62.4352 14.952C62.5285 14.8867 62.6452 14.854 62.7852 14.854C62.9252 14.854 63.0418 14.8867 63.1352 14.952C63.2285 15.0173 63.2985 15.1387 63.3452 15.316C63.4012 15.4933 63.4385 15.736 63.4572 16.044C63.4758 16.352 63.4852 16.744 63.4852 17.22C63.4852 17.696 63.4758 18.088 63.4572 18.396C63.4385 18.6947 63.4012 18.9327 63.3452 19.11C63.2985 19.2873 63.2285 19.4087 63.1352 19.474C63.0418 19.5393 62.9252 19.572 62.7852 19.572C62.6452 19.572 62.5285 19.5393 62.4352 19.474C62.3512 19.4087 62.2812 19.2873 62.2252 19.11C62.1692 18.9327 62.1318 18.6947 62.1132 18.396C62.0945 18.088 62.0852 17.696 62.0852 17.22ZM66.0052 17.22C66.0052 16.6693 65.9725 16.156 65.9072 15.68C65.8512 15.1947 65.7158 14.77 65.5012 14.406C65.2865 14.042 64.9645 13.7573 64.5352 13.552C64.1058 13.3373 63.5225 13.23 62.7852 13.23C62.0758 13.23 61.5065 13.3467 61.0772 13.58C60.6572 13.804 60.3352 14.1027 60.1112 14.476C59.8872 14.8493 59.7378 15.274 59.6632 15.75C59.5978 16.226 59.5652 16.7113 59.5652 17.206C59.5652 17.7567 59.5932 18.2747 59.6492 18.76C59.7145 19.236 59.8545 19.656 60.0692 20.02C60.2838 20.3747 60.6058 20.6547 61.0352 20.86C61.4645 21.056 62.0478 21.154 62.7852 21.154C63.4945 21.154 64.0592 21.0467 64.4792 20.832C64.9085 20.608 65.2352 20.314 65.4592 19.95C65.6832 19.5767 65.8278 19.152 65.8932 18.676C65.9678 18.2 66.0052 17.7147 66.0052 17.22ZM66.7892 13.426V21H69.3092V16.002C69.3092 15.6847 69.3558 15.456 69.4492 15.316C69.5425 15.176 69.7012 15.106 69.9252 15.106C70.1492 15.106 70.3078 15.176 70.4012 15.316C70.4945 15.456 70.5412 15.6847 70.5412 16.002V21H73.0612V15.288C73.0612 14.8773 73.0098 14.5413 72.9072 14.28C72.8045 14.0187 72.6645 13.8087 72.4872 13.65C72.3098 13.4913 72.0998 13.384 71.8572 13.328C71.6238 13.2627 71.3672 13.23 71.0872 13.23C70.1912 13.23 69.5798 13.6033 69.2532 14.35H69.2252V13.426H66.7892ZM77.7446 16.002V21H80.2646V16.002C80.2646 15.6847 80.3113 15.456 80.4046 15.316C80.4979 15.176 80.6566 15.106 80.8806 15.106C81.1046 15.106 81.2633 15.176 81.3566 15.316C81.4499 15.456 81.4966 15.6847 81.4966 16.002V21H84.0166V15.288C84.0166 14.8773 83.9653 14.5413 83.8626 14.28C83.7599 14.0187 83.6199 13.8087 83.4426 13.65C83.2653 13.4913 83.0553 13.384 82.8126 13.328C82.5793 13.2627 82.3226 13.23 82.0426 13.23C81.6506 13.23 81.2819 13.3187 80.9366 13.496C80.6006 13.664 80.3346 13.9627 80.1386 14.392C79.9799 14 79.7606 13.7107 79.4806 13.524C79.2099 13.328 78.8133 13.23 78.2906 13.23C77.3946 13.23 76.7833 13.6033 76.4566 14.35H76.4286V13.426H73.9926V21H76.5126V16.002C76.5126 15.6847 76.5593 15.456 76.6526 15.316C76.7459 15.176 76.9046 15.106 77.1286 15.106C77.3526 15.106 77.5113 15.176 77.6046 15.316C77.6979 15.456 77.7446 15.6847 77.7446 16.002ZM88.6411 15.932V16.268H87.2551V15.932C87.2551 15.5307 87.3017 15.2367 87.3951 15.05C87.4977 14.8633 87.6797 14.77 87.9411 14.77C88.2117 14.77 88.3937 14.8633 88.4871 15.05C88.5897 15.2367 88.6411 15.5307 88.6411 15.932ZM87.2551 17.64H90.9931V16.87C90.9931 16.1793 90.9277 15.6053 90.7971 15.148C90.6757 14.6813 90.4844 14.308 90.2231 14.028C89.9711 13.7387 89.6537 13.5333 89.2711 13.412C88.8977 13.2907 88.4591 13.23 87.9551 13.23C87.3857 13.23 86.8957 13.3047 86.4851 13.454C86.0837 13.594 85.7524 13.8227 85.4911 14.14C85.2297 14.4573 85.0384 14.868 84.9171 15.372C84.7957 15.876 84.7351 16.492 84.7351 17.22C84.7351 17.9387 84.7864 18.55 84.8891 19.054C85.0011 19.558 85.1831 19.9687 85.4351 20.286C85.6871 20.594 86.0184 20.818 86.4291 20.958C86.8397 21.0887 87.3484 21.154 87.9551 21.154C89.0004 21.154 89.7517 20.9207 90.2091 20.454C90.6664 19.978 90.9044 19.2733 90.9231 18.34H88.6551C88.6551 18.8533 88.5897 19.2033 88.4591 19.39C88.3377 19.5673 88.1651 19.656 87.9411 19.656C87.7637 19.656 87.6051 19.5907 87.4651 19.46C87.3251 19.32 87.2551 19.0447 87.2551 18.634V17.64ZM91.6993 13.426V21H94.2193V16.002C94.2193 15.6847 94.266 15.456 94.3593 15.316C94.4526 15.176 94.6113 15.106 94.8353 15.106C95.0593 15.106 95.218 15.176 95.3113 15.316C95.4046 15.456 95.4513 15.6847 95.4513 16.002V21H97.9713V15.288C97.9713 14.8773 97.92 14.5413 97.8173 14.28C97.7146 14.0187 97.5746 13.8087 97.3973 13.65C97.22 13.4913 97.01 13.384 96.7673 13.328C96.534 13.2627 96.2773 13.23 95.9973 13.23C95.1013 13.23 94.49 13.6033 94.1633 14.35H94.1353V13.426H91.6993ZM98.4968 13.426V15.12H99.3368V19.152C99.3368 19.572 99.3741 19.9127 99.4488 20.174C99.5328 20.426 99.6588 20.6173 99.8268 20.748C100.004 20.8787 100.228 20.9627 100.499 21C100.769 21.028 101.096 21.042 101.479 21.042C101.693 21.042 101.917 21.0327 102.151 21.014C102.384 21.0047 102.617 21 102.851 21V19.32H102.459C102.253 19.32 102.099 19.278 101.997 19.194C101.903 19.1007 101.857 18.9467 101.857 18.732V15.12H102.851V13.426H101.857V11.2H99.3368V13.426H98.4968Z" fill="black"/>
<defs>
<filter id="filter0_d_291_67" x="0" y="0" width="134" height="38" filterUnits="userSpaceOnUse" color-interpolation-filters="sRGB">
<feFlood flood-opacity="0" result="BackgroundImageFix"/>
<feColorMatrix in="SourceAlpha" type="matrix" values="0 0 0 0 0 0 0 0 0 0 0 0 0 0 0 0 0 0 127 0" result="hardAlpha"/>
<feOffset dy="4"/>
<feGaussianBlur stdDeviation="2"/>
<feColorMatrix type="matrix" values="0 0 0 0 0 0 0 0 0 0 0 0 0 0 0 0 0 0 0.25 0"/>
<feBlend mode="normal" in2="BackgroundImageFix" result="effect1_dropShadow_291_67"/>
<feBlend mode="normal" in="SourceGraphic" in2="effect1_dropShadow_291_67" result="shape"/>
</filter>
</defs>
</svg>
