<svg width="105" height="38" viewBox="0 0 105 38" fill="none" xmlns="http://www.w3.org/2000/svg">
<g filter="url(#filter0_d_291_63)">
<rect x="4" width="96.6667" height="30" rx="15" fill="#FFCC33"/>
<rect x="6" y="2" width="92.6667" height="26" rx="13" stroke="#A68114" stroke-width="4"/>
</g>
<path d="M43.01 16.002C43.01 15.33 43.0193 14.7747 43.038 14.336C43.0567 13.888 43.094 13.5333 43.15 13.272C43.2153 13.0107 43.304 12.8287 43.416 12.726C43.5373 12.6233 43.696 12.572 43.892 12.572C44.088 12.572 44.242 12.6233 44.354 12.726C44.4753 12.8287 44.564 13.0107 44.62 13.272C44.6853 13.5333 44.7273 13.888 44.746 14.336C44.7647 14.7747 44.774 15.33 44.774 16.002C44.774 16.674 44.7647 17.234 44.746 17.682C44.7273 18.1207 44.6853 18.4707 44.62 18.732C44.564 18.9933 44.4753 19.1753 44.354 19.278C44.242 19.3807 44.088 19.432 43.892 19.432C43.696 19.432 43.5373 19.3807 43.416 19.278C43.304 19.1753 43.2153 18.9933 43.15 18.732C43.094 18.4707 43.0567 18.1207 43.038 17.682C43.0193 17.234 43.01 16.674 43.01 16.002ZM40.322 16.002C40.322 16.9353 40.3827 17.7333 40.504 18.396C40.6253 19.0493 40.826 19.586 41.106 20.006C41.386 20.4167 41.7547 20.7107 42.212 20.888C42.6693 21.0653 43.2293 21.154 43.892 21.154C44.5547 21.154 45.1147 21.0653 45.572 20.888C46.0293 20.7107 46.398 20.4167 46.678 20.006C46.958 19.586 47.1587 19.0493 47.28 18.396C47.4013 17.7333 47.462 16.9353 47.462 16.002C47.462 15.0687 47.4013 14.2753 47.28 13.622C47.1587 12.9593 46.958 12.4227 46.678 12.012C46.398 11.592 46.0293 11.2887 45.572 11.102C45.1147 10.906 44.5547 10.808 43.892 10.808C43.2293 10.808 42.6693 10.906 42.212 11.102C41.7547 11.2887 41.386 11.592 41.106 12.012C40.826 12.4227 40.6253 12.9593 40.504 13.622C40.3827 14.2753 40.322 15.0687 40.322 16.002ZM48.3953 11.004V21H50.9993V16.884H52.5953V21H55.1993V11.004H52.5953V14.672H50.9993V11.004H48.3953ZM60.3264 13.888H62.7624C62.7624 12.8147 62.5057 12.0353 61.9924 11.55C61.4884 11.0553 60.667 10.808 59.5284 10.808C58.427 10.808 57.6057 11.074 57.0644 11.606C56.523 12.138 56.2524 12.9127 56.2524 13.93C56.2524 14.518 56.3504 14.994 56.5464 15.358C56.7517 15.722 57.0037 16.016 57.3024 16.24C57.6104 16.464 57.9417 16.646 58.2964 16.786C58.651 16.926 58.9777 17.066 59.2764 17.206C59.5844 17.3367 59.8364 17.5 60.0324 17.696C60.2377 17.8827 60.3404 18.1393 60.3404 18.466C60.3404 18.7367 60.2657 18.9653 60.1164 19.152C59.9764 19.3387 59.771 19.432 59.5004 19.432C59.2484 19.432 59.043 19.348 58.8844 19.18C58.7257 19.0027 58.6464 18.6993 58.6464 18.27V18.032H56.1264V18.382C56.1264 18.9047 56.201 19.3433 56.3504 19.698C56.4997 20.0527 56.7144 20.342 56.9944 20.566C57.2837 20.7807 57.6337 20.93 58.0444 21.014C58.4644 21.1073 58.945 21.154 59.4864 21.154C60.6344 21.154 61.5117 20.916 62.1184 20.44C62.725 19.9547 63.0284 19.18 63.0284 18.116C63.0284 17.5093 62.921 17.0193 62.7064 16.646C62.501 16.2633 62.2397 15.9553 61.9224 15.722C61.605 15.4887 61.2644 15.302 60.9004 15.162C60.5364 15.0127 60.1957 14.868 59.8784 14.728C59.561 14.588 59.295 14.4247 59.0804 14.238C58.875 14.042 58.7724 13.7807 58.7724 13.454C58.7724 13.23 58.8377 13.0293 58.9684 12.852C59.099 12.6653 59.3044 12.572 59.5844 12.572C59.8364 12.572 60.023 12.6793 60.1444 12.894C60.2657 13.0993 60.3264 13.3513 60.3264 13.65V13.888Z" fill="black"/>
<defs>
<filter id="filter0_d_291_63" x="0" y="0" width="104.667" height="38" filterUnits="userSpaceOnUse" color-interpolation-filters="sRGB">
<feFlood flood-opacity="0" result="BackgroundImageFix"/>
<feColorMatrix in="SourceAlpha" type="matrix" values="0 0 0 0 0 0 0 0 0 0 0 0 0 0 0 0 0 0 127 0" result="hardAlpha"/>
<feOffset dy="4"/>
<feGaussianBlur stdDeviation="2"/>
<feColorMatrix type="matrix" values="0 0 0 0 0 0 0 0 0 0 0 0 0 0 0 0 0 0 0.25 0"/>
<feBlend mode="normal" in2="BackgroundImageFix" result="effect1_dropShadow_291_63"/>
<feBlend mode="normal" in="SourceGraphic" in2="effect1_dropShadow_291_63" result="shape"/>
</filter>
</defs>
</svg>
