<svg width="97" height="30" viewBox="0 0 97 30" fill="none" xmlns="http://www.w3.org/2000/svg">
<rect width="96.6667" height="30" rx="15" fill="#589BBC" fill-opacity="0.5"/>
<path d="M34.258 22.624L35.826 21.266L34.622 20.062C34.9207 19.642 35.1353 19.1007 35.266 18.438C35.3967 17.7753 35.462 16.9633 35.462 16.002C35.462 15.0687 35.4013 14.2753 35.28 13.622C35.1587 12.9593 34.958 12.4227 34.678 12.012C34.398 11.592 34.0293 11.2887 33.572 11.102C33.1147 10.906 32.5547 10.808 31.892 10.808C31.2293 10.808 30.6693 10.906 30.212 11.102C29.7547 11.2887 29.386 11.592 29.106 12.012C28.826 12.4227 28.6253 12.9593 28.504 13.622C28.3827 14.2753 28.322 15.0687 28.322 16.002C28.322 16.9353 28.3827 17.7333 28.504 18.396C28.6253 19.0493 28.826 19.586 29.106 20.006C29.386 20.4167 29.7547 20.7107 30.212 20.888C30.6693 21.0653 31.2293 21.154 31.892 21.154H32.144C32.2747 21.154 32.3913 21.1447 32.494 21.126C32.606 21.1167 32.718 21.1027 32.83 21.084L34.258 22.624ZM31.01 16.002C31.01 15.33 31.0193 14.7747 31.038 14.336C31.0567 13.888 31.094 13.5333 31.15 13.272C31.2153 13.0107 31.304 12.8287 31.416 12.726C31.5373 12.6233 31.696 12.572 31.892 12.572C32.088 12.572 32.242 12.6233 32.354 12.726C32.4753 12.8287 32.564 13.0107 32.62 13.272C32.6853 13.5333 32.7273 13.888 32.746 14.336C32.7647 14.7747 32.774 15.33 32.774 16.002C32.774 16.674 32.7647 17.234 32.746 17.682C32.7273 18.1207 32.6853 18.4707 32.62 18.732C32.564 18.9933 32.4753 19.1753 32.354 19.278C32.242 19.3807 32.088 19.432 31.892 19.432C31.696 19.432 31.5373 19.3807 31.416 19.278C31.304 19.1753 31.2153 18.9933 31.15 18.732C31.094 18.4707 31.0567 18.1207 31.038 17.682C31.0193 17.234 31.01 16.674 31.01 16.002ZM36.2833 13.426V19.138C36.2833 19.5393 36.3346 19.8753 36.4373 20.146C36.54 20.4073 36.68 20.6173 36.8573 20.776C37.0346 20.9253 37.24 21.0233 37.4733 21.07C37.716 21.126 37.9773 21.154 38.2573 21.154C39.1626 21.154 39.774 20.7947 40.0913 20.076H40.1193V21H42.5553V13.426H40.0353V18.424C40.0353 18.7413 39.9886 18.97 39.8953 19.11C39.802 19.25 39.6433 19.32 39.4193 19.32C39.1953 19.32 39.0366 19.25 38.9433 19.11C38.85 18.97 38.8033 18.7413 38.8033 18.424V13.426H36.2833ZM46.3007 19.502C46.1141 19.502 45.9647 19.4273 45.8527 19.278C45.7407 19.1287 45.6847 18.928 45.6847 18.676C45.6847 18.424 45.7221 18.2233 45.7967 18.074C45.8714 17.9153 46.0067 17.7893 46.2027 17.696C46.3894 17.612 46.5574 17.5607 46.7067 17.542C46.8654 17.514 46.9821 17.4487 47.0567 17.346H47.0847V18.256C47.0847 18.676 47.0241 18.9887 46.9027 19.194C46.7814 19.3993 46.5807 19.502 46.3007 19.502ZM47.2387 21H49.6747C49.5721 20.804 49.5067 20.5707 49.4787 20.3C49.4507 20.0293 49.4367 19.7167 49.4367 19.362V15.666C49.4367 15.1713 49.3621 14.77 49.2127 14.462C49.0727 14.1447 48.8674 13.8973 48.5967 13.72C48.3354 13.5333 48.0181 13.4073 47.6447 13.342C47.2807 13.2673 46.8794 13.23 46.4407 13.23C46.1514 13.23 45.8387 13.2627 45.5027 13.328C45.1667 13.384 44.8541 13.5053 44.5647 13.692C44.2754 13.8693 44.0327 14.126 43.8367 14.462C43.6407 14.7887 43.5427 15.2273 43.5427 15.778H45.7267C45.7361 15.3767 45.7967 15.1107 45.9087 14.98C46.0207 14.84 46.1981 14.77 46.4407 14.77C46.8701 14.77 47.0847 15.0033 47.0847 15.47C47.0847 15.7033 47.0287 15.8853 46.9167 16.016C46.8047 16.1373 46.6134 16.2307 46.3427 16.296L45.3487 16.534C44.9474 16.6273 44.6114 16.744 44.3407 16.884C44.0701 17.0147 43.8554 17.178 43.6967 17.374C43.5381 17.5607 43.4214 17.7847 43.3467 18.046C43.2814 18.3073 43.2487 18.6153 43.2487 18.97C43.2487 19.2967 43.2861 19.5953 43.3607 19.866C43.4354 20.1367 43.5567 20.37 43.7247 20.566C43.8927 20.762 44.1074 20.9067 44.3687 21C44.6394 21.1027 44.9661 21.154 45.3487 21.154C45.7407 21.154 46.0861 21.07 46.3847 20.902C46.6927 20.734 46.9167 20.482 47.0567 20.146H47.0847C47.1034 20.3047 47.1221 20.454 47.1407 20.594C47.1594 20.734 47.1921 20.8693 47.2387 21ZM50.5987 11.004V21H53.1187V11.004H50.5987ZM54.2081 11.004V12.88H56.7281V11.004H54.2081ZM54.2081 13.426V21H56.7281V13.426H54.2081ZM57.2995 13.426V15.12H58.1395V19.152C58.1395 19.572 58.1768 19.9127 58.2515 20.174C58.3355 20.426 58.4615 20.6173 58.6295 20.748C58.8068 20.8787 59.0308 20.9627 59.3015 21C59.5722 21.028 59.8988 21.042 60.2815 21.042C60.4962 21.042 60.7202 21.0327 60.9535 21.014C61.1868 21.0047 61.4202 21 61.6535 21V19.32H61.2615C61.0562 19.32 60.9022 19.278 60.7995 19.194C60.7062 19.1007 60.6595 18.9467 60.6595 18.732V15.12H61.6535V13.426H60.6595V11.2H58.1395V13.426H57.2995ZM62.3875 21.602V23.366C62.6022 23.3847 62.8215 23.3987 63.0455 23.408C63.2788 23.4173 63.5308 23.422 63.8015 23.422C64.1375 23.422 64.4362 23.3893 64.6975 23.324C64.9588 23.2587 65.1875 23.142 65.3835 22.974C65.5888 22.806 65.7615 22.5773 65.9015 22.288C66.0508 22.008 66.1815 21.6487 66.2935 21.21L68.3235 13.426H65.8035L65.0755 18.536H65.0475L64.2775 13.426H61.6875L63.6755 20.566C63.7035 20.6687 63.7268 20.7667 63.7455 20.86C63.7735 20.9533 63.7875 21.028 63.7875 21.084C63.7875 21.1213 63.7735 21.1727 63.7455 21.238C63.7175 21.3033 63.6708 21.364 63.6055 21.42C63.5402 21.4853 63.4515 21.5413 63.3395 21.588C63.2368 21.6347 63.1062 21.658 62.9475 21.658C62.8542 21.658 62.7608 21.6533 62.6675 21.644C62.5742 21.6347 62.4808 21.6207 62.3875 21.602Z" fill="black"/>
</svg>
