<?xml version="1.0" standalone="no"?>
<!DOCTYPE svg PUBLIC "-//W3C//DTD SVG 20010904//EN"
 "http://www.w3.org/TR/2001/REC-SVG-20010904/DTD/svg10.dtd">
<svg version="1.0" xmlns="http://www.w3.org/2000/svg"
 width="2500.000000pt" height="2500.000000pt" viewBox="0 0 2500.000000 2500.000000"
 preserveAspectRatio="xMidYMid meet">
<metadata>
Created by potrace 1.14, written by Peter Selinger 2001-2017
</metadata>
<g transform="translate(0.000000,2500.000000) scale(0.100000,-0.100000)"
fill="#000000" stroke="none">
<path d="M15067 15154 c-1 -1 -99 -4 -217 -8 -118 -4 -235 -8 -260 -11 -25 -2
-79 -6 -120 -10 -79 -6 -101 -9 -245 -25 -475 -56 -916 -177 -1260 -346 -402
-196 -695 -470 -875 -816 -78 -152 -160 -400 -176 -535 -3 -32 -8 -61 -10 -65
-18 -29 -26 -589 -11 -733 12 -121 17 -159 27 -190 5 -16 12 -50 16 -75 9 -58
68 -247 101 -319 184 -413 470 -710 903 -939 126 -67 343 -157 460 -192 41
-13 84 -26 95 -31 21 -9 156 -45 196 -53 13 -2 76 -16 141 -30 64 -13 136 -28
160 -31 23 -3 55 -8 71 -11 15 -2 39 -6 55 -8 77 -13 174 -25 252 -32 146 -12
161 -17 185 -64 13 -24 15 -90 15 -413 l0 -384 1200 0 c1166 0 1200 0 1220 19
11 10 20 24 21 31 0 7 2 20 4 29 7 38 -33 85 -470 536 -108 111 -136 150 -130
182 2 8 4 20 4 26 3 36 61 70 134 79 23 2 56 7 72 10 17 3 66 12 110 21 143
26 360 82 499 129 477 158 831 385 1094 700 86 102 252 385 252 428 0 7 4 17
9 23 10 11 55 141 76 224 26 101 47 221 60 355 7 62 7 524 1 585 -4 35 -15
128 -21 165 -24 173 -98 403 -183 564 -40 77 -107 188 -122 201 -3 3 -25 32
-50 65 -100 136 -324 331 -502 440 -124 75 -322 170 -458 219 -41 15 -84 32
-95 36 -52 23 -375 111 -461 126 -16 3 -60 11 -99 19 -61 12 -198 34 -305 49
-19 3 -64 8 -100 11 -36 4 -76 8 -90 11 -14 2 -59 6 -100 9 -41 4 -95 8 -120
10 -132 11 -942 27 -953 19z m424 -1288 c81 -3 153 -8 160 -11 8 -2 32 -6 55
-9 231 -26 475 -110 639 -219 85 -57 193 -171 240 -252 22 -38 40 -72 41 -75
0 -3 6 -18 13 -35 49 -114 66 -286 48 -481 -23 -246 -197 -503 -422 -624 -22
-11 -47 -25 -55 -30 -58 -36 -260 -106 -365 -126 -11 -2 -42 -8 -70 -14 -123
-25 -266 -35 -485 -34 -247 1 -395 16 -565 59 -33 9 -71 18 -85 21 -14 3 -70
23 -124 45 -341 136 -546 377 -592 694 -10 64 -10 253 -1 324 10 76 16 95 49
180 89 227 279 389 573 489 167 57 347 87 585 98 74 4 136 8 138 9 1 1 19 1
40 -1 20 -1 103 -5 183 -8z"/>
<path d="M21098 15145 c-2 -2 -76 -6 -165 -10 -90 -3 -173 -8 -185 -10 -13 -2
-61 -6 -108 -10 -82 -6 -127 -10 -200 -20 -19 -3 -55 -7 -80 -10 -25 -3 -110
-17 -190 -31 -437 -77 -781 -210 -1007 -390 -209 -166 -324 -366 -368 -634
-13 -84 -14 -412 -1 -472 3 -16 8 -39 11 -53 3 -14 7 -37 10 -51 23 -107 95
-263 169 -364 166 -227 442 -397 816 -505 112 -32 321 -77 415 -90 22 -3 54
-7 70 -10 30 -4 87 -11 168 -19 214 -23 317 -28 852 -41 417 -10 674 -20 782
-30 350 -35 511 -90 581 -199 23 -36 26 -51 26 -131 0 -101 -16 -145 -76 -202
-61 -59 -207 -114 -368 -138 -133 -20 -494 -27 -640 -13 -354 35 -572 179
-631 416 -9 36 -23 62 -42 78 l-29 24 -1083 0 c-996 0 -1085 -1 -1100 -17 -14
-14 -16 -32 -11 -122 3 -58 7 -117 10 -131 3 -14 7 -41 10 -60 21 -138 109
-338 203 -465 130 -174 299 -309 531 -424 163 -82 452 -185 577 -207 17 -3 55
-11 85 -19 30 -7 73 -16 94 -19 21 -4 48 -8 60 -11 31 -7 73 -14 151 -25 155
-22 200 -28 280 -35 33 -3 80 -8 105 -10 304 -28 1769 -28 2030 -1 19 2 75 7
124 11 49 4 98 8 110 10 20 3 50 7 156 20 46 6 66 9 160 25 30 5 71 12 90 15
178 30 433 102 615 173 131 52 327 154 367 192 12 11 25 20 29 20 13 0 140
111 193 167 167 180 262 397 291 669 10 85 10 356 1 415 -3 24 -9 62 -11 84
-19 144 -97 331 -189 453 -189 248 -551 428 -1036 516 -132 24 -138 25 -255
40 -96 13 -155 19 -290 31 -208 19 -444 28 -1090 40 -279 5 -498 13 -562 20
-216 24 -307 41 -394 74 -127 48 -174 108 -174 223 0 58 4 72 30 108 38 54 90
82 196 109 137 34 268 45 529 45 218 0 337 -9 454 -34 227 -49 335 -121 401
-264 18 -39 43 -78 56 -86 21 -12 173 -14 1083 -15 713 0 1066 3 1080 10 18 9
21 20 20 65 -3 277 -101 522 -282 708 -66 68 -201 182 -216 182 -3 0 -22 12
-43 26 -88 60 -303 153 -483 209 -134 42 -381 98 -535 120 -22 4 -53 9 -70 11
-16 3 -48 7 -70 9 -22 3 -53 7 -70 9 -29 4 -119 13 -200 21 -58 5 -187 15
-285 21 -88 6 -1477 14 -1482 9z"/>
<path d="M415 15049 c-196 -105 -370 -354 -401 -574 -5 -33 -9 -871 -8 -1862
0 -1793 0 -1803 20 -1830 11 -15 35 -31 52 -35 17 -5 438 -7 936 -6 l906 3 27
29 27 29 0 734 1 735 33 29 32 29 1175 0 c857 0 1181 -3 1199 -11 57 -26 56
-13 56 -796 1 -764 -1 -731 49 -766 23 -15 98 -17 934 -17 833 0 911 1 937 17
16 9 34 27 41 40 10 18 12 464 12 2112 0 1957 -1 2091 -17 2116 -9 14 -29 30
-43 36 -16 6 -368 8 -945 7 l-920 -3 -24 -28 -24 -28 0 -664 c0 -407 -4 -674
-10 -689 -5 -14 -23 -34 -39 -44 -28 -17 -88 -18 -1203 -17 -925 0 -1178 3
-1195 13 -49 27 -48 16 -49 731 l0 674 -32 28 -32 29 -728 0 c-724 0 -728 0
-767 -21z"/>
<path d="M6764 15057 c-51 -25 -48 95 -49 -2142 -1 -1723 1 -2095 12 -2117 30
-63 -165 -58 2529 -58 2269 0 2458 1 2484 17 16 9 33 27 39 40 7 16 11 186 11
524 0 542 0 542 -55 567 -20 9 -383 12 -1520 12 l-1495 0 -32 29 -33 29 0 177
1 177 32 29 32 29 1458 0 c1145 0 1462 3 1482 13 55 27 55 30 55 565 l0 492
-28 28 -27 27 -1475 5 -1475 5 -27 27 c-27 27 -27 29 -28 169 -1 150 8 189 49
212 16 8 393 11 1509 12 l1489 0 29 33 c25 28 29 40 30 95 3 323 -1 923 -6
947 -4 16 -18 39 -32 50 -26 20 -35 20 -2482 19 -1707 -1 -2462 -5 -2477 -12z"/>
</g>
</svg>
